solid OpenSCAD_Model
  facet normal -1 0 0
    outer loop
      vertex 0 0 0
      vertex 0 100 3
      vertex 0 100 0
    endloop
  endfacet
  facet normal -1 -0 0
    outer loop
      vertex 0 100 3
      vertex 0 0 0
      vertex 0 0 3
    endloop
  endfacet
  facet normal -0 0 1
    outer loop
      vertex 2.5 21 3
      vertex 4.5 11.5 3
      vertex 4.5 21 3
    endloop
  endfacet
  facet normal 0 0 1
    outer loop
      vertex 4.5 11.5 3
      vertex 2.5 21 3
      vertex 2.5 11.5 3
    endloop
  endfacet
  facet normal -0 0 1
    outer loop
      vertex 2.5 52.5 3
      vertex 4.5 39.5 3
      vertex 4.5 52.5 3
    endloop
  endfacet
  facet normal 0 0 1
    outer loop
      vertex 4.5 39.5 3
      vertex 2.5 52.5 3
      vertex 2.5 39.5 3
    endloop
  endfacet
  facet normal 0 0 1
    outer loop
      vertex 4.5 52.5 3
      vertex 75.5 62 3
      vertex 4.5 62 3
    endloop
  endfacet
  facet normal 0 0 1
    outer loop
      vertex 4.5 39.5 3
      vertex 75.5 62 3
      vertex 4.5 52.5 3
    endloop
  endfacet
  facet normal 0 0 1
    outer loop
      vertex 75.5 62 3
      vertex 4.5 39.5 3
      vertex 75.5 8 3
    endloop
  endfacet
  facet normal -0 0 1
    outer loop
      vertex 4.5 21 3
      vertex 75.5 8 3
      vertex 4.5 39.5 3
    endloop
  endfacet
  facet normal -0 0 1
    outer loop
      vertex 4.5 11.5 3
      vertex 75.5 8 3
      vertex 4.5 21 3
    endloop
  endfacet
  facet normal 0 0 1
    outer loop
      vertex 75.5 8 3
      vertex 4.5 11.5 3
      vertex 4.5 8 3
    endloop
  endfacet
  facet normal -0 0 1
    outer loop
      vertex 2.5 6 3
      vertex 26 5 3
      vertex 77.5 6 3
    endloop
  endfacet
  facet normal 0 0 1
    outer loop
      vertex 16 5 3
      vertex 2.5 6 3
      vertex 16 2.5 3
    endloop
  endfacet
  facet normal 0 0 1
    outer loop
      vertex 26 5 3
      vertex 2.5 6 3
      vertex 16 5 3
    endloop
  endfacet
  facet normal 0 0 1
    outer loop
      vertex 78 100 3
      vertex 77.5 64 3
      vertex 78 0 3
    endloop
  endfacet
  facet normal 0 0 1
    outer loop
      vertex 78 100 3
      vertex 26 68.5 3
      vertex 77.5 64 3
    endloop
  endfacet
  facet normal -0 0 1
    outer loop
      vertex 0 100 3
      vertex 26 68.5 3
      vertex 78 100 3
    endloop
  endfacet
  facet normal 0 0 1
    outer loop
      vertex 16 68.5 3
      vertex 2.5 64 3
      vertex 16 66 3
    endloop
  endfacet
  facet normal 0 0 1
    outer loop
      vertex 26 68.5 3
      vertex 0 100 3
      vertex 16 68.5 3
    endloop
  endfacet
  facet normal 0 0 1
    outer loop
      vertex 0 100 3
      vertex 2.5 52.5 3
      vertex 2.5 64 3
    endloop
  endfacet
  facet normal 0 0 1
    outer loop
      vertex 2.5 52.5 3
      vertex 0 0 3
      vertex 2.5 39.5 3
    endloop
  endfacet
  facet normal 0 0 1
    outer loop
      vertex 2.5 39.5 3
      vertex 0 0 3
      vertex 2.5 21 3
    endloop
  endfacet
  facet normal 0 0 1
    outer loop
      vertex 2.5 21 3
      vertex 0 0 3
      vertex 2.5 11.5 3
    endloop
  endfacet
  facet normal 0 0 1
    outer loop
      vertex 2.5 52.5 3
      vertex 0 100 3
      vertex 0 0 3
    endloop
  endfacet
  facet normal 0 0 1
    outer loop
      vertex 16 68.5 3
      vertex 0 100 3
      vertex 2.5 64 3
    endloop
  endfacet
  facet normal -0 0 1
    outer loop
      vertex 77.5 6 3
      vertex 78 0 3
      vertex 77.5 64 3
    endloop
  endfacet
  facet normal 0 0 1
    outer loop
      vertex 26 2.5 3
      vertex 77.5 6 3
      vertex 26 5 3
    endloop
  endfacet
  facet normal 0 0 1
    outer loop
      vertex 77.5 6 3
      vertex 26 2.5 3
      vertex 78 0 3
    endloop
  endfacet
  facet normal 0 0 1
    outer loop
      vertex 0 0 3
      vertex 26 2.5 3
      vertex 16 2.5 3
    endloop
  endfacet
  facet normal 0 0 1
    outer loop
      vertex 26 2.5 3
      vertex 0 0 3
      vertex 78 0 3
    endloop
  endfacet
  facet normal 0 0 1
    outer loop
      vertex 2.5 6 3
      vertex 0 0 3
      vertex 16 2.5 3
    endloop
  endfacet
  facet normal 0 0 1
    outer loop
      vertex 2.5 11.5 3
      vertex 0 0 3
      vertex 2.5 6 3
    endloop
  endfacet
  facet normal -0 0 1
    outer loop
      vertex 26 66 3
      vertex 77.5 64 3
      vertex 26 68.5 3
    endloop
  endfacet
  facet normal 0 0 1
    outer loop
      vertex 2.5 64 3
      vertex 26 66 3
      vertex 16 66 3
    endloop
  endfacet
  facet normal 0 0 1
    outer loop
      vertex 26 66 3
      vertex 2.5 64 3
      vertex 77.5 64 3
    endloop
  endfacet
  facet normal -1 0 0
    outer loop
      vertex 80 85.3857 35.9299
      vertex 80 86 44
      vertex 80 86.4388 34.8084
    endloop
  endfacet
  facet normal -1 0 0
    outer loop
      vertex 80 84.2004 36.9105
      vertex 80 86 44
      vertex 80 85.3857 35.9299
    endloop
  endfacet
  facet normal -1 0 0
    outer loop
      vertex 80 82.9015 37.7348
      vertex 80 86 44
      vertex 80 84.2004 36.9105
    endloop
  endfacet
  facet normal -1 0 0
    outer loop
      vertex 80 81.5095 38.3898
      vertex 80 86 44
      vertex 80 82.9015 37.7348
    endloop
  endfacet
  facet normal -1 0 0
    outer loop
      vertex 80 80.0464 38.8651
      vertex 80 86 44
      vertex 80 81.5095 38.3898
    endloop
  endfacet
  facet normal -1 0 0
    outer loop
      vertex 80 78.5353 39.1534
      vertex 80 86 44
      vertex 80 80.0464 38.8651
    endloop
  endfacet
  facet normal -1 0 0
    outer loop
      vertex 80 77 39.25
      vertex 80 86 44
      vertex 80 78.5353 39.1534
    endloop
  endfacet
  facet normal -1 0 0
    outer loop
      vertex 80 75.4647 39.1534
      vertex 80 86 44
      vertex 80 77 39.25
    endloop
  endfacet
  facet normal -1 0 0
    outer loop
      vertex 80 55 44
      vertex 80 75.4647 39.1534
      vertex 80 73.9536 38.8651
    endloop
  endfacet
  facet normal -1 0 0
    outer loop
      vertex 80 55 44
      vertex 80 73.9536 38.8651
      vertex 80 72.4905 38.3898
    endloop
  endfacet
  facet normal -1 0 0
    outer loop
      vertex 80 75.4647 39.1534
      vertex 80 55 44
      vertex 80 86 44
    endloop
  endfacet
  facet normal -1 0 0
    outer loop
      vertex 80 71.0985 37.7348
      vertex 80 55 44
      vertex 80 72.4905 38.3898
    endloop
  endfacet
  facet normal -1 0 0
    outer loop
      vertex 80 69.7996 36.9105
      vertex 80 55 44
      vertex 80 71.0985 37.7348
    endloop
  endfacet
  facet normal -1 0 0
    outer loop
      vertex 80 68.6143 35.9299
      vertex 80 55 44
      vertex 80 69.7996 36.9105
    endloop
  endfacet
  facet normal -1 0 0
    outer loop
      vertex 80 67.5612 34.8084
      vertex 80 55 44
      vertex 80 68.6143 35.9299
    endloop
  endfacet
  facet normal -1 0 0
    outer loop
      vertex 80 66.657 33.5639
      vertex 80 55 44
      vertex 80 67.5612 34.8084
    endloop
  endfacet
  facet normal -1 0 0
    outer loop
      vertex 80 65.9159 32.2158
      vertex 80 55 44
      vertex 80 66.657 33.5639
    endloop
  endfacet
  facet normal -1 0 0
    outer loop
      vertex 80 65.3496 30.7855
      vertex 80 55 44
      vertex 80 65.9159 32.2158
    endloop
  endfacet
  facet normal -1 0 0
    outer loop
      vertex 80 64.967 29.2954
      vertex 80 55 44
      vertex 80 65.3496 30.7855
    endloop
  endfacet
  facet normal -1 0 0
    outer loop
      vertex 80 55 44
      vertex 80 64.967 29.2954
      vertex 80 64.7742 27.7692
    endloop
  endfacet
  facet normal -1 0 0
    outer loop
      vertex 80 89.2258 27.7692
      vertex 80 100 5
      vertex 80 89.2258 26.2308
    endloop
  endfacet
  facet normal -1 0 0
    outer loop
      vertex 80 100 5
      vertex 80 89.033 24.7046
      vertex 80 89.2258 26.2308
    endloop
  endfacet
  facet normal -1 0 0
    outer loop
      vertex 80 100 5
      vertex 80 88.6504 23.2145
      vertex 80 89.033 24.7046
    endloop
  endfacet
  facet normal -1 0 0
    outer loop
      vertex 80 100 5
      vertex 80 88.0841 21.7842
      vertex 80 88.6504 23.2145
    endloop
  endfacet
  facet normal -1 0 0
    outer loop
      vertex 80 100 5
      vertex 80 87.343 20.4361
      vertex 80 88.0841 21.7842
    endloop
  endfacet
  facet normal -1 0 0
    outer loop
      vertex 80 100 5
      vertex 80 86.4388 19.1916
      vertex 80 87.343 20.4361
    endloop
  endfacet
  facet normal -1 0 0
    outer loop
      vertex 80 100 5
      vertex 80 85.3857 18.0701
      vertex 80 86.4388 19.1916
    endloop
  endfacet
  facet normal -1 0 0
    outer loop
      vertex 80 100 5
      vertex 80 84.2004 17.0895
      vertex 80 85.3857 18.0701
    endloop
  endfacet
  facet normal -1 0 0
    outer loop
      vertex 80 100 5
      vertex 80 82.9015 16.2652
      vertex 80 84.2004 17.0895
    endloop
  endfacet
  facet normal -1 0 0
    outer loop
      vertex 80 100 5
      vertex 80 81.5095 15.6102
      vertex 80 82.9015 16.2652
    endloop
  endfacet
  facet normal -1 0 0
    outer loop
      vertex 80 100 5
      vertex 80 80.0464 15.1349
      vertex 80 81.5095 15.6102
    endloop
  endfacet
  facet normal -1 0 0
    outer loop
      vertex 80 100 5
      vertex 80 78.5353 14.8466
      vertex 80 80.0464 15.1349
    endloop
  endfacet
  facet normal -1 0 0
    outer loop
      vertex 80 100 5
      vertex 80 77 14.75
      vertex 80 78.5353 14.8466
    endloop
  endfacet
  facet normal -1 0 0
    outer loop
      vertex 80 100 5
      vertex 80 75.4647 14.8466
      vertex 80 77 14.75
    endloop
  endfacet
  facet normal -1 0 0
    outer loop
      vertex 80 100 5
      vertex 80 73.9536 15.1349
      vertex 80 75.4647 14.8466
    endloop
  endfacet
  facet normal -1 0 0
    outer loop
      vertex 80 0 5
      vertex 80 73.9536 15.1349
      vertex 80 100 5
    endloop
  endfacet
  facet normal -1 0 0
    outer loop
      vertex 80 34.2258 27.7692
      vertex 80 64.7742 27.7692
      vertex 80 64.7742 26.2308
    endloop
  endfacet
  facet normal -1 0 0
    outer loop
      vertex 80 34.2258 26.2308
      vertex 80 64.7742 26.2308
      vertex 80 64.967 24.7046
    endloop
  endfacet
  facet normal -1 0 0
    outer loop
      vertex 80 34.033 24.7046
      vertex 80 64.967 24.7046
      vertex 80 65.3496 23.2145
    endloop
  endfacet
  facet normal -1 0 0
    outer loop
      vertex 80 33.6504 23.2145
      vertex 80 65.3496 23.2145
      vertex 80 65.9159 21.7842
    endloop
  endfacet
  facet normal -1 0 0
    outer loop
      vertex 80 64.7742 27.7692
      vertex 80 34.2258 27.7692
      vertex 80 55 44
    endloop
  endfacet
  facet normal -1 0 0
    outer loop
      vertex 80 64.7742 26.2308
      vertex 80 34.2258 26.2308
      vertex 80 34.2258 27.7692
    endloop
  endfacet
  facet normal -1 0 0
    outer loop
      vertex 80 33.0841 21.7842
      vertex 80 65.9159 21.7842
      vertex 80 66.657 20.4361
    endloop
  endfacet
  facet normal -1 0 0
    outer loop
      vertex 80 32.343 20.4361
      vertex 80 66.657 20.4361
      vertex 80 67.5612 19.1916
    endloop
  endfacet
  facet normal -1 0 0
    outer loop
      vertex 80 31.4388 19.1916
      vertex 80 67.5612 19.1916
      vertex 80 68.6143 18.0701
    endloop
  endfacet
  facet normal -1 0 0
    outer loop
      vertex 80 30.3857 18.0701
      vertex 80 68.6143 18.0701
      vertex 80 69.7996 17.0895
    endloop
  endfacet
  facet normal -1 0 0
    outer loop
      vertex 80 29.2004 17.0895
      vertex 80 69.7996 17.0895
      vertex 80 71.0985 16.2652
    endloop
  endfacet
  facet normal -1 0 0
    outer loop
      vertex 80 27.9015 16.2652
      vertex 80 71.0985 16.2652
      vertex 80 72.4905 15.6102
    endloop
  endfacet
  facet normal -1 0 0
    outer loop
      vertex 80 73.9536 15.1349
      vertex 80 25.0465 15.1349
      vertex 80 72.4905 15.6102
    endloop
  endfacet
  facet normal -1 0 0
    outer loop
      vertex 80 64.967 24.7046
      vertex 80 34.033 24.7046
      vertex 80 34.2258 26.2308
    endloop
  endfacet
  facet normal -1 0 0
    outer loop
      vertex 80 65.3496 23.2145
      vertex 80 33.6504 23.2145
      vertex 80 34.033 24.7046
    endloop
  endfacet
  facet normal -1 0 0
    outer loop
      vertex 80 65.9159 21.7842
      vertex 80 33.0841 21.7842
      vertex 80 33.6504 23.2145
    endloop
  endfacet
  facet normal -1 0 0
    outer loop
      vertex 80 66.657 20.4361
      vertex 80 32.343 20.4361
      vertex 80 33.0841 21.7842
    endloop
  endfacet
  facet normal -1 0 0
    outer loop
      vertex 80 67.5612 19.1916
      vertex 80 31.4388 19.1916
      vertex 80 32.343 20.4361
    endloop
  endfacet
  facet normal -1 0 0
    outer loop
      vertex 80 68.6143 18.0701
      vertex 80 30.3857 18.0701
      vertex 80 31.4388 19.1916
    endloop
  endfacet
  facet normal -1 0 0
    outer loop
      vertex 80 69.7996 17.0895
      vertex 80 29.2004 17.0895
      vertex 80 30.3857 18.0701
    endloop
  endfacet
  facet normal -1 0 0
    outer loop
      vertex 80 71.0985 16.2652
      vertex 80 27.9015 16.2652
      vertex 80 29.2004 17.0895
    endloop
  endfacet
  facet normal -1 0 0
    outer loop
      vertex 80 72.4905 15.6102
      vertex 80 26.5095 15.6102
      vertex 80 27.9015 16.2652
    endloop
  endfacet
  facet normal -1 -0 0
    outer loop
      vertex 80 72.4905 15.6102
      vertex 80 25.0465 15.1349
      vertex 80 26.5095 15.6102
    endloop
  endfacet
  facet normal -1 -0 0
    outer loop
      vertex 80 73.9536 15.1349
      vertex 80 0 5
      vertex 80 25.0465 15.1349
    endloop
  endfacet
  facet normal -1 0 0
    outer loop
      vertex 80 25.0465 15.1349
      vertex 80 0 5
      vertex 80 23.5353 14.8466
    endloop
  endfacet
  facet normal -1 0 0
    outer loop
      vertex 80 23.5353 14.8466
      vertex 80 0 5
      vertex 80 22 14.75
    endloop
  endfacet
  facet normal -1 -0 0
    outer loop
      vertex 80 9.77417 26.2308
      vertex 80 0 5
      vertex 80 9.77417 27.7692
    endloop
  endfacet
  facet normal -1 -0 0
    outer loop
      vertex 80 9.96698 24.7046
      vertex 80 0 5
      vertex 80 9.77417 26.2308
    endloop
  endfacet
  facet normal -1 -0 0
    outer loop
      vertex 80 10.3496 23.2145
      vertex 80 0 5
      vertex 80 9.96698 24.7046
    endloop
  endfacet
  facet normal -1 -0 0
    outer loop
      vertex 80 10.9159 21.7842
      vertex 80 0 5
      vertex 80 10.3496 23.2145
    endloop
  endfacet
  facet normal -1 -0 0
    outer loop
      vertex 80 11.657 20.4361
      vertex 80 0 5
      vertex 80 10.9159 21.7842
    endloop
  endfacet
  facet normal -1 -0 0
    outer loop
      vertex 80 12.5612 19.1916
      vertex 80 0 5
      vertex 80 11.657 20.4361
    endloop
  endfacet
  facet normal -1 -0 0
    outer loop
      vertex 80 13.6143 18.0701
      vertex 80 0 5
      vertex 80 12.5612 19.1916
    endloop
  endfacet
  facet normal -1 -0 0
    outer loop
      vertex 80 14.7996 17.0895
      vertex 80 0 5
      vertex 80 13.6143 18.0701
    endloop
  endfacet
  facet normal -1 -0 0
    outer loop
      vertex 80 16.0985 16.2652
      vertex 80 0 5
      vertex 80 14.7996 17.0895
    endloop
  endfacet
  facet normal -1 -0 0
    outer loop
      vertex 80 17.4905 15.6102
      vertex 80 0 5
      vertex 80 16.0985 16.2652
    endloop
  endfacet
  facet normal -1 -0 0
    outer loop
      vertex 80 18.9535 15.1349
      vertex 80 0 5
      vertex 80 17.4905 15.6102
    endloop
  endfacet
  facet normal -1 -0 0
    outer loop
      vertex 80 20.4647 14.8466
      vertex 80 0 5
      vertex 80 18.9535 15.1349
    endloop
  endfacet
  facet normal -1 -0 0
    outer loop
      vertex 80 22 14.75
      vertex 80 0 5
      vertex 80 20.4647 14.8466
    endloop
  endfacet
  facet normal -1 0 0
    outer loop
      vertex 80 100 5
      vertex 80 89.2258 27.7692
      vertex 80 100 63
    endloop
  endfacet
  facet normal -1 0 0
    outer loop
      vertex 80 89.033 29.2954
      vertex 80 100 63
      vertex 80 89.2258 27.7692
    endloop
  endfacet
  facet normal -1 0 0
    outer loop
      vertex 80 88.6504 30.7855
      vertex 80 100 63
      vertex 80 89.033 29.2954
    endloop
  endfacet
  facet normal -1 0 0
    outer loop
      vertex 80 88.0841 32.2158
      vertex 80 100 63
      vertex 80 88.6504 30.7855
    endloop
  endfacet
  facet normal -1 0 0
    outer loop
      vertex 80 86 44
      vertex 80 88.0841 32.2158
      vertex 80 87.343 33.5639
    endloop
  endfacet
  facet normal -1 0 0
    outer loop
      vertex 80 86 44
      vertex 80 87.343 33.5639
      vertex 80 86.4388 34.8084
    endloop
  endfacet
  facet normal -1 0 0
    outer loop
      vertex 80 88.0841 32.2158
      vertex 80 86 44
      vertex 80 100 63
    endloop
  endfacet
  facet normal -1 0 0
    outer loop
      vertex 80 86 59
      vertex 80 100 63
      vertex 80 86 44
    endloop
  endfacet
  facet normal -1 0 0
    outer loop
      vertex 80 55 59
      vertex 80 100 63
      vertex 80 86 59
    endloop
  endfacet
  facet normal -1 0 0
    outer loop
      vertex 80 34.033 29.2954
      vertex 80 55 44
      vertex 80 34.2258 27.7692
    endloop
  endfacet
  facet normal -1 0 0
    outer loop
      vertex 80 33.6504 30.7855
      vertex 80 55 44
      vertex 80 34.033 29.2954
    endloop
  endfacet
  facet normal -1 0 0
    outer loop
      vertex 80 33.0841 32.2158
      vertex 80 55 44
      vertex 80 33.6504 30.7855
    endloop
  endfacet
  facet normal -1 0 0
    outer loop
      vertex 80 32.343 33.5639
      vertex 80 55 44
      vertex 80 33.0841 32.2158
    endloop
  endfacet
  facet normal -1 0 0
    outer loop
      vertex 80 31.4388 34.8084
      vertex 80 55 44
      vertex 80 32.343 33.5639
    endloop
  endfacet
  facet normal -1 0 0
    outer loop
      vertex 80 30.3857 35.9299
      vertex 80 55 44
      vertex 80 31.4388 34.8084
    endloop
  endfacet
  facet normal -1 0 0
    outer loop
      vertex 80 29.2004 36.9105
      vertex 80 55 44
      vertex 80 30.3857 35.9299
    endloop
  endfacet
  facet normal -1 -0 0
    outer loop
      vertex 80 55 44
      vertex 80 29.2004 36.9105
      vertex 80 55 59
    endloop
  endfacet
  facet normal -1 0 0
    outer loop
      vertex 80 27.9015 37.7348
      vertex 80 55 59
      vertex 80 29.2004 36.9105
    endloop
  endfacet
  facet normal -1 0 0
    outer loop
      vertex 80 26.5095 38.3898
      vertex 80 55 59
      vertex 80 27.9015 37.7348
    endloop
  endfacet
  facet normal -1 0 0
    outer loop
      vertex 80 25.0465 38.8651
      vertex 80 55 59
      vertex 80 26.5095 38.3898
    endloop
  endfacet
  facet normal -1 0 0
    outer loop
      vertex 80 23.5353 39.1534
      vertex 80 55 59
      vertex 80 25.0465 38.8651
    endloop
  endfacet
  facet normal -1 0 0
    outer loop
      vertex 80 0 63
      vertex 80 23.5353 39.1534
      vertex 80 22 39.25
    endloop
  endfacet
  facet normal -1 0 0
    outer loop
      vertex 80 0 63
      vertex 80 22 39.25
      vertex 80 20.4647 39.1534
    endloop
  endfacet
  facet normal -1 0 0
    outer loop
      vertex 80 0 63
      vertex 80 20.4647 39.1534
      vertex 80 18.9535 38.8651
    endloop
  endfacet
  facet normal -1 0 0
    outer loop
      vertex 80 0 63
      vertex 80 18.9535 38.8651
      vertex 80 17.4905 38.3898
    endloop
  endfacet
  facet normal -1 0 0
    outer loop
      vertex 80 0 63
      vertex 80 17.4905 38.3898
      vertex 80 16.0985 37.7348
    endloop
  endfacet
  facet normal -1 0 0
    outer loop
      vertex 80 0 5
      vertex 80 9.96698 29.2954
      vertex 80 9.77417 27.7692
    endloop
  endfacet
  facet normal -1 0 0
    outer loop
      vertex 80 0 63
      vertex 80 9.96698 29.2954
      vertex 80 0 5
    endloop
  endfacet
  facet normal -1 0 0
    outer loop
      vertex 80 9.96698 29.2954
      vertex 80 0 63
      vertex 80 10.3496 30.7855
    endloop
  endfacet
  facet normal -1 0 0
    outer loop
      vertex 80 55 59
      vertex 80 0 63
      vertex 80 100 63
    endloop
  endfacet
  facet normal -1 0 0
    outer loop
      vertex 80 23.5353 39.1534
      vertex 80 0 63
      vertex 80 55 59
    endloop
  endfacet
  facet normal -1 0 0
    outer loop
      vertex 80 14.7996 36.9105
      vertex 80 0 63
      vertex 80 16.0985 37.7348
    endloop
  endfacet
  facet normal -1 0 0
    outer loop
      vertex 80 13.6143 35.9299
      vertex 80 0 63
      vertex 80 14.7996 36.9105
    endloop
  endfacet
  facet normal -1 0 0
    outer loop
      vertex 80 12.5612 34.8084
      vertex 80 0 63
      vertex 80 13.6143 35.9299
    endloop
  endfacet
  facet normal -1 0 0
    outer loop
      vertex 80 11.657 33.5639
      vertex 80 0 63
      vertex 80 12.5612 34.8084
    endloop
  endfacet
  facet normal -1 0 0
    outer loop
      vertex 80 10.9159 32.2158
      vertex 80 0 63
      vertex 80 11.657 33.5639
    endloop
  endfacet
  facet normal -1 0 0
    outer loop
      vertex 80 10.3496 30.7855
      vertex 80 0 63
      vertex 80 10.9159 32.2158
    endloop
  endfacet
  facet normal 0 1 0
    outer loop
      vertex 82.5 100 63
      vertex 80 100 5
      vertex 80 100 63
    endloop
  endfacet
  facet normal 0 1 0
    outer loop
      vertex 80 100 5
      vertex 78 100 3
      vertex 78 100 5
    endloop
  endfacet
  facet normal 0 1 -0
    outer loop
      vertex 82.5 100 0
      vertex 80 100 5
      vertex 82.5 100 63
    endloop
  endfacet
  facet normal 0 1 0
    outer loop
      vertex 82.5 100 0
      vertex 78 100 3
      vertex 80 100 5
    endloop
  endfacet
  facet normal 0 1 0
    outer loop
      vertex 0 100 0
      vertex 78 100 3
      vertex 82.5 100 0
    endloop
  endfacet
  facet normal 0 1 0
    outer loop
      vertex 78 100 3
      vertex 0 100 0
      vertex 0 100 3
    endloop
  endfacet
  facet normal 0 0 -1
    outer loop
      vertex 16 5 0
      vertex 26 66 0
      vertex 26 5 0
    endloop
  endfacet
  facet normal -0 0 -1
    outer loop
      vertex 26 66 0
      vertex 16 5 0
      vertex 16 66 0
    endloop
  endfacet
  facet normal 0 0 -1
    outer loop
      vertex 26 5 0
      vertex 82.5 0 0
      vertex 26 2.5 0
    endloop
  endfacet
  facet normal 0 0 -1
    outer loop
      vertex 0 0 0
      vertex 26 2.5 0
      vertex 82.5 0 0
    endloop
  endfacet
  facet normal 0 0 -1
    outer loop
      vertex 0 0 0
      vertex 16 5 0
      vertex 16 2.5 0
    endloop
  endfacet
  facet normal -0 0 -1
    outer loop
      vertex 16 5 0
      vertex 0 0 0
      vertex 16 66 0
    endloop
  endfacet
  facet normal 0 0 -1
    outer loop
      vertex 0 100 0
      vertex 16 66 0
      vertex 0 0 0
    endloop
  endfacet
  facet normal -0 0 -1
    outer loop
      vertex 26 2.5 0
      vertex 0 0 0
      vertex 16 2.5 0
    endloop
  endfacet
  facet normal 0 0 -1
    outer loop
      vertex 26 66 0
      vertex 82.5 0 0
      vertex 26 5 0
    endloop
  endfacet
  facet normal 0 0 -1
    outer loop
      vertex 82.5 0 0
      vertex 26 66 0
      vertex 82.5 100 0
    endloop
  endfacet
  facet normal 0 0 -1
    outer loop
      vertex 26 68.5 0
      vertex 82.5 100 0
      vertex 26 66 0
    endloop
  endfacet
  facet normal 0 0 -1
    outer loop
      vertex 0 100 0
      vertex 26 68.5 0
      vertex 16 68.5 0
    endloop
  endfacet
  facet normal 0 0 -1
    outer loop
      vertex 26 68.5 0
      vertex 0 100 0
      vertex 82.5 100 0
    endloop
  endfacet
  facet normal 0 0 -1
    outer loop
      vertex 16 66 0
      vertex 0 100 0
      vertex 16 68.5 0
    endloop
  endfacet
  facet normal 0 -1 0
    outer loop
      vertex 0 0 3
      vertex 0 0 0
      vertex 78 0 3
    endloop
  endfacet
  facet normal 0 -1 0
    outer loop
      vertex 78 0 5
      vertex 78 0 3
      vertex 80 0 5
    endloop
  endfacet
  facet normal 0 -1 0
    outer loop
      vertex 80 0 5
      vertex 82.5 0 63
      vertex 80 0 63
    endloop
  endfacet
  facet normal 0 -1 0
    outer loop
      vertex 80 0 5
      vertex 82.5 0 0
      vertex 82.5 0 63
    endloop
  endfacet
  facet normal 0 -1 0
    outer loop
      vertex 78 0 3
      vertex 82.5 0 0
      vertex 80 0 5
    endloop
  endfacet
  facet normal 0 -1 0
    outer loop
      vertex 82.5 0 0
      vertex 78 0 3
      vertex 0 0 0
    endloop
  endfacet
  facet normal 1 -0 0
    outer loop
      vertex 16 2.5 3
      vertex 16 5 0
      vertex 16 5 3
    endloop
  endfacet
  facet normal 1 0 0
    outer loop
      vertex 16 5 0
      vertex 16 2.5 3
      vertex 16 2.5 0
    endloop
  endfacet
  facet normal -1 0 0
    outer loop
      vertex 26 2.5 0
      vertex 26 5 3
      vertex 26 5 0
    endloop
  endfacet
  facet normal -1 -0 0
    outer loop
      vertex 26 5 3
      vertex 26 2.5 0
      vertex 26 2.5 3
    endloop
  endfacet
  facet normal 0 -1 0
    outer loop
      vertex 16 5 0
      vertex 26 5 3
      vertex 16 5 3
    endloop
  endfacet
  facet normal 0 -1 -0
    outer loop
      vertex 26 5 3
      vertex 16 5 0
      vertex 26 5 0
    endloop
  endfacet
  facet normal 0 1 -0
    outer loop
      vertex 26 2.5 0
      vertex 16 2.5 3
      vertex 26 2.5 3
    endloop
  endfacet
  facet normal 0 1 0
    outer loop
      vertex 16 2.5 3
      vertex 26 2.5 0
      vertex 16 2.5 0
    endloop
  endfacet
  facet normal 1 -0 0
    outer loop
      vertex 16 66 3
      vertex 16 68.5 0
      vertex 16 68.5 3
    endloop
  endfacet
  facet normal 1 0 0
    outer loop
      vertex 16 68.5 0
      vertex 16 66 3
      vertex 16 66 0
    endloop
  endfacet
  facet normal -1 0 0
    outer loop
      vertex 26 66 0
      vertex 26 68.5 3
      vertex 26 68.5 0
    endloop
  endfacet
  facet normal -1 -0 0
    outer loop
      vertex 26 68.5 3
      vertex 26 66 0
      vertex 26 66 3
    endloop
  endfacet
  facet normal 0 -1 0
    outer loop
      vertex 16 68.5 0
      vertex 26 68.5 3
      vertex 16 68.5 3
    endloop
  endfacet
  facet normal 0 -1 -0
    outer loop
      vertex 26 68.5 3
      vertex 16 68.5 0
      vertex 26 68.5 0
    endloop
  endfacet
  facet normal 0 1 -0
    outer loop
      vertex 26 66 0
      vertex 16 66 3
      vertex 26 66 3
    endloop
  endfacet
  facet normal 0 1 0
    outer loop
      vertex 16 66 3
      vertex 26 66 0
      vertex 16 66 0
    endloop
  endfacet
  facet normal 0 1 -0
    outer loop
      vertex 77.5 64 3
      vertex 2.5 64 6.5
      vertex 77.5 64 6.5
    endloop
  endfacet
  facet normal 0 1 0
    outer loop
      vertex 2.5 64 6.5
      vertex 77.5 64 3
      vertex 2.5 64 3
    endloop
  endfacet
  facet normal 0 0 1
    outer loop
      vertex 4.5 11.5 6.5
      vertex 2.5 11.5 6.5
      vertex 4.5 8 6.5
    endloop
  endfacet
  facet normal 0 0 1
    outer loop
      vertex 77.5 64 6.5
      vertex 75.5 62 6.5
      vertex 77.5 6 6.5
    endloop
  endfacet
  facet normal 0 0 1
    outer loop
      vertex 77.5 64 6.5
      vertex 4.5 62 6.5
      vertex 75.5 62 6.5
    endloop
  endfacet
  facet normal -0 0 1
    outer loop
      vertex 2.5 64 6.5
      vertex 4.5 62 6.5
      vertex 77.5 64 6.5
    endloop
  endfacet
  facet normal 0 0 1
    outer loop
      vertex 2.5 52.5 6.5
      vertex 4.5 62 6.5
      vertex 2.5 64 6.5
    endloop
  endfacet
  facet normal 0 0 1
    outer loop
      vertex 4.5 62 6.5
      vertex 2.5 52.5 6.5
      vertex 4.5 52.5 6.5
    endloop
  endfacet
  facet normal -0 0 1
    outer loop
      vertex 75.5 8 6.5
      vertex 77.5 6 6.5
      vertex 75.5 62 6.5
    endloop
  endfacet
  facet normal -0 0 1
    outer loop
      vertex 4.5 8 6.5
      vertex 77.5 6 6.5
      vertex 75.5 8 6.5
    endloop
  endfacet
  facet normal 0 0 1
    outer loop
      vertex 4.5 8 6.5
      vertex 2.5 6 6.5
      vertex 77.5 6 6.5
    endloop
  endfacet
  facet normal 0 0 1
    outer loop
      vertex 2.5 6 6.5
      vertex 4.5 8 6.5
      vertex 2.5 11.5 6.5
    endloop
  endfacet
  facet normal -0 0 1
    outer loop
      vertex 2.5 39.5 6.5
      vertex 4.5 21 6.5
      vertex 4.5 39.5 6.5
    endloop
  endfacet
  facet normal 0 0 1
    outer loop
      vertex 4.5 21 6.5
      vertex 2.5 39.5 6.5
      vertex 2.5 21 6.5
    endloop
  endfacet
  facet normal 0 -1 0
    outer loop
      vertex 2.5 6 3
      vertex 77.5 6 6.5
      vertex 2.5 6 6.5
    endloop
  endfacet
  facet normal 0 -1 -0
    outer loop
      vertex 77.5 6 6.5
      vertex 2.5 6 3
      vertex 77.5 6 3
    endloop
  endfacet
  facet normal 1 -0 0
    outer loop
      vertex 77.5 6 6.5
      vertex 77.5 64 3
      vertex 77.5 64 6.5
    endloop
  endfacet
  facet normal 1 0 0
    outer loop
      vertex 77.5 64 3
      vertex 77.5 6 6.5
      vertex 77.5 6 3
    endloop
  endfacet
  facet normal -1 0 0
    outer loop
      vertex 2.5 52.5 3
      vertex 2.5 64 6.5
      vertex 2.5 64 3
    endloop
  endfacet
  facet normal -1 -0 0
    outer loop
      vertex 2.5 64 6.5
      vertex 2.5 52.5 3
      vertex 2.5 52.5 6.5
    endloop
  endfacet
  facet normal -1 0 0
    outer loop
      vertex 2.5 6 3
      vertex 2.5 11.5 6.5
      vertex 2.5 11.5 3
    endloop
  endfacet
  facet normal -1 -0 0
    outer loop
      vertex 2.5 11.5 6.5
      vertex 2.5 6 3
      vertex 2.5 6 6.5
    endloop
  endfacet
  facet normal -1 0 0
    outer loop
      vertex 2.5 21 3
      vertex 2.5 39.5 6.5
      vertex 2.5 39.5 3
    endloop
  endfacet
  facet normal -1 -0 0
    outer loop
      vertex 2.5 39.5 6.5
      vertex 2.5 21 3
      vertex 2.5 21 6.5
    endloop
  endfacet
  facet normal 0 -1 0
    outer loop
      vertex 4.5 62 3
      vertex 75.5 62 6.5
      vertex 4.5 62 6.5
    endloop
  endfacet
  facet normal 0 -1 -0
    outer loop
      vertex 75.5 62 6.5
      vertex 4.5 62 3
      vertex 75.5 62 3
    endloop
  endfacet
  facet normal 0 1 -0
    outer loop
      vertex 75.5 8 3
      vertex 4.5 8 6.5
      vertex 75.5 8 6.5
    endloop
  endfacet
  facet normal 0 1 0
    outer loop
      vertex 4.5 8 6.5
      vertex 75.5 8 3
      vertex 4.5 8 3
    endloop
  endfacet
  facet normal -1 0 0
    outer loop
      vertex 75.5 8 3
      vertex 75.5 62 6.5
      vertex 75.5 62 3
    endloop
  endfacet
  facet normal -1 -0 0
    outer loop
      vertex 75.5 62 6.5
      vertex 75.5 8 3
      vertex 75.5 8 6.5
    endloop
  endfacet
  facet normal 1 -0 0
    outer loop
      vertex 4.5 52.5 6.5
      vertex 4.5 62 3
      vertex 4.5 62 6.5
    endloop
  endfacet
  facet normal 1 0 0
    outer loop
      vertex 4.5 62 3
      vertex 4.5 52.5 6.5
      vertex 4.5 52.5 3
    endloop
  endfacet
  facet normal 1 -0 0
    outer loop
      vertex 4.5 8 6.5
      vertex 4.5 11.5 3
      vertex 4.5 11.5 6.5
    endloop
  endfacet
  facet normal 1 0 0
    outer loop
      vertex 4.5 11.5 3
      vertex 4.5 8 6.5
      vertex 4.5 8 3
    endloop
  endfacet
  facet normal 1 -0 0
    outer loop
      vertex 4.5 21 6.5
      vertex 4.5 39.5 3
      vertex 4.5 39.5 6.5
    endloop
  endfacet
  facet normal 1 0 0
    outer loop
      vertex 4.5 39.5 3
      vertex 4.5 21 6.5
      vertex 4.5 21 3
    endloop
  endfacet
  facet normal 0 -1 0
    outer loop
      vertex 2.5 52.5 3
      vertex 4.5 52.5 6.5
      vertex 2.5 52.5 6.5
    endloop
  endfacet
  facet normal 0 -1 -0
    outer loop
      vertex 4.5 52.5 6.5
      vertex 2.5 52.5 3
      vertex 4.5 52.5 3
    endloop
  endfacet
  facet normal 0 1 -0
    outer loop
      vertex 4.5 39.5 3
      vertex 2.5 39.5 6.5
      vertex 4.5 39.5 6.5
    endloop
  endfacet
  facet normal 0 1 0
    outer loop
      vertex 2.5 39.5 6.5
      vertex 4.5 39.5 3
      vertex 2.5 39.5 3
    endloop
  endfacet
  facet normal 0 -1 0
    outer loop
      vertex 2.5 21 3
      vertex 4.5 21 6.5
      vertex 2.5 21 6.5
    endloop
  endfacet
  facet normal 0 -1 -0
    outer loop
      vertex 4.5 21 6.5
      vertex 2.5 21 3
      vertex 4.5 21 3
    endloop
  endfacet
  facet normal 0 1 -0
    outer loop
      vertex 4.5 11.5 3
      vertex 2.5 11.5 6.5
      vertex 4.5 11.5 6.5
    endloop
  endfacet
  facet normal 0 1 0
    outer loop
      vertex 2.5 11.5 6.5
      vertex 4.5 11.5 3
      vertex 2.5 11.5 3
    endloop
  endfacet
  facet normal -0 0 1
    outer loop
      vertex 80 100 63
      vertex 82.5 0 63
      vertex 82.5 100 63
    endloop
  endfacet
  facet normal 0 0 1
    outer loop
      vertex 82.5 0 63
      vertex 80 100 63
      vertex 80 0 63
    endloop
  endfacet
  facet normal 1 0 0
    outer loop
      vertex 82.5 100 63
      vertex 82.5 89.2258 27.7692
      vertex 82.5 100 0
    endloop
  endfacet
  facet normal 1 0 0
    outer loop
      vertex 82.5 100 63
      vertex 82.5 89.033 29.2954
      vertex 82.5 89.2258 27.7692
    endloop
  endfacet
  facet normal 1 0 0
    outer loop
      vertex 82.5 100 63
      vertex 82.5 88.6504 30.7855
      vertex 82.5 89.033 29.2954
    endloop
  endfacet
  facet normal 1 0 0
    outer loop
      vertex 82.5 100 63
      vertex 82.5 88.0841 32.2158
      vertex 82.5 88.6504 30.7855
    endloop
  endfacet
  facet normal 1 -0 0
    outer loop
      vertex 82.5 86 44
      vertex 82.5 88.0841 32.2158
      vertex 82.5 100 63
    endloop
  endfacet
  facet normal 1 0 0
    outer loop
      vertex 82.5 88.0841 32.2158
      vertex 82.5 86 44
      vertex 82.5 87.343 33.5639
    endloop
  endfacet
  facet normal 1 0 0
    outer loop
      vertex 82.5 86 44
      vertex 82.5 100 63
      vertex 82.5 86 59
    endloop
  endfacet
  facet normal 1 0 0
    outer loop
      vertex 82.5 100 63
      vertex 82.5 55 59
      vertex 82.5 86 59
    endloop
  endfacet
  facet normal 1 0 0
    outer loop
      vertex 82.5 29.2004 36.9105
      vertex 82.5 55 44
      vertex 82.5 55 59
    endloop
  endfacet
  facet normal 1 0 0
    outer loop
      vertex 82.5 55 44
      vertex 82.5 34.033 29.2954
      vertex 82.5 34.2258 27.7692
    endloop
  endfacet
  facet normal 1 0 0
    outer loop
      vertex 82.5 55 44
      vertex 82.5 33.6504 30.7855
      vertex 82.5 34.033 29.2954
    endloop
  endfacet
  facet normal 1 0 0
    outer loop
      vertex 82.5 55 44
      vertex 82.5 33.0841 32.2158
      vertex 82.5 33.6504 30.7855
    endloop
  endfacet
  facet normal 1 0 0
    outer loop
      vertex 82.5 55 44
      vertex 82.5 32.343 33.5639
      vertex 82.5 33.0841 32.2158
    endloop
  endfacet
  facet normal 1 0 0
    outer loop
      vertex 82.5 55 44
      vertex 82.5 31.4388 34.8084
      vertex 82.5 32.343 33.5639
    endloop
  endfacet
  facet normal 1 0 0
    outer loop
      vertex 82.5 55 44
      vertex 82.5 30.3857 35.9299
      vertex 82.5 31.4388 34.8084
    endloop
  endfacet
  facet normal 1 0 0
    outer loop
      vertex 82.5 55 44
      vertex 82.5 29.2004 36.9105
      vertex 82.5 30.3857 35.9299
    endloop
  endfacet
  facet normal 1 0 0
    outer loop
      vertex 82.5 55 59
      vertex 82.5 27.9015 37.7348
      vertex 82.5 29.2004 36.9105
    endloop
  endfacet
  facet normal 1 0 0
    outer loop
      vertex 82.5 55 59
      vertex 82.5 26.5095 38.3898
      vertex 82.5 27.9015 37.7348
    endloop
  endfacet
  facet normal 1 0 0
    outer loop
      vertex 82.5 55 59
      vertex 82.5 25.0465 38.8651
      vertex 82.5 26.5095 38.3898
    endloop
  endfacet
  facet normal 1 0 0
    outer loop
      vertex 82.5 55 59
      vertex 82.5 23.5353 39.1534
      vertex 82.5 25.0465 38.8651
    endloop
  endfacet
  facet normal 1 0 0
    outer loop
      vertex 82.5 0 63
      vertex 82.5 23.5353 39.1534
      vertex 82.5 55 59
    endloop
  endfacet
  facet normal 1 0 0
    outer loop
      vertex 82.5 23.5353 39.1534
      vertex 82.5 0 63
      vertex 82.5 22 39.25
    endloop
  endfacet
  facet normal 1 0 0
    outer loop
      vertex 82.5 22 39.25
      vertex 82.5 0 63
      vertex 82.5 20.4647 39.1534
    endloop
  endfacet
  facet normal 1 0 0
    outer loop
      vertex 82.5 20.4647 39.1534
      vertex 82.5 0 63
      vertex 82.5 18.9535 38.8651
    endloop
  endfacet
  facet normal 1 0 0
    outer loop
      vertex 82.5 18.9535 38.8651
      vertex 82.5 0 63
      vertex 82.5 17.4905 38.3898
    endloop
  endfacet
  facet normal 1 0 0
    outer loop
      vertex 82.5 0 0
      vertex 82.5 9.77417 27.7692
      vertex 82.5 0 63
    endloop
  endfacet
  facet normal 1 0 0
    outer loop
      vertex 82.5 9.96698 29.2954
      vertex 82.5 0 63
      vertex 82.5 9.77417 27.7692
    endloop
  endfacet
  facet normal 1 0 0
    outer loop
      vertex 82.5 10.3496 30.7855
      vertex 82.5 0 63
      vertex 82.5 9.96698 29.2954
    endloop
  endfacet
  facet normal 1 0 0
    outer loop
      vertex 82.5 10.9159 32.2158
      vertex 82.5 0 63
      vertex 82.5 10.3496 30.7855
    endloop
  endfacet
  facet normal 1 0 0
    outer loop
      vertex 82.5 11.657 33.5639
      vertex 82.5 0 63
      vertex 82.5 10.9159 32.2158
    endloop
  endfacet
  facet normal 1 0 0
    outer loop
      vertex 82.5 12.5612 34.8084
      vertex 82.5 0 63
      vertex 82.5 11.657 33.5639
    endloop
  endfacet
  facet normal 1 0 0
    outer loop
      vertex 82.5 13.6143 35.9299
      vertex 82.5 0 63
      vertex 82.5 12.5612 34.8084
    endloop
  endfacet
  facet normal 1 0 0
    outer loop
      vertex 82.5 14.7996 36.9105
      vertex 82.5 0 63
      vertex 82.5 13.6143 35.9299
    endloop
  endfacet
  facet normal 1 0 0
    outer loop
      vertex 82.5 16.0985 37.7348
      vertex 82.5 0 63
      vertex 82.5 14.7996 36.9105
    endloop
  endfacet
  facet normal 1 0 0
    outer loop
      vertex 82.5 17.4905 38.3898
      vertex 82.5 0 63
      vertex 82.5 16.0985 37.7348
    endloop
  endfacet
  facet normal 1 -0 0
    outer loop
      vertex 82.5 0 63
      vertex 82.5 55 59
      vertex 82.5 100 63
    endloop
  endfacet
  facet normal 1 -0 0
    outer loop
      vertex 82.5 89.2258 26.2308
      vertex 82.5 100 0
      vertex 82.5 89.2258 27.7692
    endloop
  endfacet
  facet normal 1 -0 0
    outer loop
      vertex 82.5 89.033 24.7046
      vertex 82.5 100 0
      vertex 82.5 89.2258 26.2308
    endloop
  endfacet
  facet normal 1 -0 0
    outer loop
      vertex 82.5 88.6504 23.2145
      vertex 82.5 100 0
      vertex 82.5 89.033 24.7046
    endloop
  endfacet
  facet normal 1 -0 0
    outer loop
      vertex 82.5 88.0841 21.7842
      vertex 82.5 100 0
      vertex 82.5 88.6504 23.2145
    endloop
  endfacet
  facet normal 1 -0 0
    outer loop
      vertex 82.5 87.343 20.4361
      vertex 82.5 100 0
      vertex 82.5 88.0841 21.7842
    endloop
  endfacet
  facet normal 1 -0 0
    outer loop
      vertex 82.5 86.4388 19.1916
      vertex 82.5 100 0
      vertex 82.5 87.343 20.4361
    endloop
  endfacet
  facet normal 1 -0 0
    outer loop
      vertex 82.5 85.3857 18.0701
      vertex 82.5 100 0
      vertex 82.5 86.4388 19.1916
    endloop
  endfacet
  facet normal 1 -0 0
    outer loop
      vertex 82.5 84.2004 17.0895
      vertex 82.5 100 0
      vertex 82.5 85.3857 18.0701
    endloop
  endfacet
  facet normal 1 -0 0
    outer loop
      vertex 82.5 82.9015 16.2652
      vertex 82.5 100 0
      vertex 82.5 84.2004 17.0895
    endloop
  endfacet
  facet normal 1 -0 0
    outer loop
      vertex 82.5 81.5095 15.6102
      vertex 82.5 100 0
      vertex 82.5 82.9015 16.2652
    endloop
  endfacet
  facet normal 1 -0 0
    outer loop
      vertex 82.5 80.0464 15.1349
      vertex 82.5 100 0
      vertex 82.5 81.5095 15.6102
    endloop
  endfacet
  facet normal 1 -0 0
    outer loop
      vertex 82.5 78.5353 14.8466
      vertex 82.5 100 0
      vertex 82.5 80.0464 15.1349
    endloop
  endfacet
  facet normal 1 -0 0
    outer loop
      vertex 82.5 77 14.75
      vertex 82.5 100 0
      vertex 82.5 78.5353 14.8466
    endloop
  endfacet
  facet normal 1 0 0
    outer loop
      vertex 82.5 75.4647 14.8466
      vertex 82.5 100 0
      vertex 82.5 77 14.75
    endloop
  endfacet
  facet normal 1 0 0
    outer loop
      vertex 82.5 73.9536 15.1349
      vertex 82.5 100 0
      vertex 82.5 75.4647 14.8466
    endloop
  endfacet
  facet normal 1 0 0
    outer loop
      vertex 82.5 72.4905 15.6102
      vertex 82.5 100 0
      vertex 82.5 73.9536 15.1349
    endloop
  endfacet
  facet normal 1 0 0
    outer loop
      vertex 82.5 26.5095 15.6102
      vertex 82.5 72.4905 15.6102
      vertex 82.5 71.0985 16.2652
    endloop
  endfacet
  facet normal 1 0 0
    outer loop
      vertex 82.5 64.7742 27.7692
      vertex 82.5 34.2258 27.7692
      vertex 82.5 64.7742 26.2308
    endloop
  endfacet
  facet normal 1 0 0
    outer loop
      vertex 82.5 34.2258 26.2308
      vertex 82.5 64.7742 26.2308
      vertex 82.5 34.2258 27.7692
    endloop
  endfacet
  facet normal 1 0 0
    outer loop
      vertex 82.5 64.7742 26.2308
      vertex 82.5 34.2258 26.2308
      vertex 82.5 64.967 24.7046
    endloop
  endfacet
  facet normal 1 0 0
    outer loop
      vertex 82.5 34.033 24.7046
      vertex 82.5 64.967 24.7046
      vertex 82.5 34.2258 26.2308
    endloop
  endfacet
  facet normal 1 0 0
    outer loop
      vertex 82.5 64.967 24.7046
      vertex 82.5 34.033 24.7046
      vertex 82.5 65.3496 23.2145
    endloop
  endfacet
  facet normal 1 0 0
    outer loop
      vertex 82.5 33.6504 23.2145
      vertex 82.5 65.3496 23.2145
      vertex 82.5 34.033 24.7046
    endloop
  endfacet
  facet normal 1 0 0
    outer loop
      vertex 82.5 65.3496 23.2145
      vertex 82.5 33.6504 23.2145
      vertex 82.5 65.9159 21.7842
    endloop
  endfacet
  facet normal 1 0 0
    outer loop
      vertex 82.5 33.0841 21.7842
      vertex 82.5 65.9159 21.7842
      vertex 82.5 33.6504 23.2145
    endloop
  endfacet
  facet normal 1 0 0
    outer loop
      vertex 82.5 65.9159 21.7842
      vertex 82.5 33.0841 21.7842
      vertex 82.5 66.657 20.4361
    endloop
  endfacet
  facet normal 1 0 0
    outer loop
      vertex 82.5 32.343 20.4361
      vertex 82.5 66.657 20.4361
      vertex 82.5 33.0841 21.7842
    endloop
  endfacet
  facet normal 1 0 0
    outer loop
      vertex 82.5 66.657 20.4361
      vertex 82.5 32.343 20.4361
      vertex 82.5 67.5612 19.1916
    endloop
  endfacet
  facet normal 1 0 0
    outer loop
      vertex 82.5 31.4388 19.1916
      vertex 82.5 67.5612 19.1916
      vertex 82.5 32.343 20.4361
    endloop
  endfacet
  facet normal 1 0 0
    outer loop
      vertex 82.5 67.5612 19.1916
      vertex 82.5 31.4388 19.1916
      vertex 82.5 68.6143 18.0701
    endloop
  endfacet
  facet normal 1 0 0
    outer loop
      vertex 82.5 30.3857 18.0701
      vertex 82.5 68.6143 18.0701
      vertex 82.5 31.4388 19.1916
    endloop
  endfacet
  facet normal 1 0 0
    outer loop
      vertex 82.5 68.6143 18.0701
      vertex 82.5 30.3857 18.0701
      vertex 82.5 69.7996 17.0895
    endloop
  endfacet
  facet normal 1 0 0
    outer loop
      vertex 82.5 29.2004 17.0895
      vertex 82.5 69.7996 17.0895
      vertex 82.5 30.3857 18.0701
    endloop
  endfacet
  facet normal 1 0 0
    outer loop
      vertex 82.5 69.7996 17.0895
      vertex 82.5 29.2004 17.0895
      vertex 82.5 71.0985 16.2652
    endloop
  endfacet
  facet normal 1 0 0
    outer loop
      vertex 82.5 27.9015 16.2652
      vertex 82.5 71.0985 16.2652
      vertex 82.5 29.2004 17.0895
    endloop
  endfacet
  facet normal 1 0 0
    outer loop
      vertex 82.5 26.5095 15.6102
      vertex 82.5 71.0985 16.2652
      vertex 82.5 27.9015 16.2652
    endloop
  endfacet
  facet normal 1 0 0
    outer loop
      vertex 82.5 0 0
      vertex 82.5 72.4905 15.6102
      vertex 82.5 26.5095 15.6102
    endloop
  endfacet
  facet normal 1 0 0
    outer loop
      vertex 82.5 0 0
      vertex 82.5 26.5095 15.6102
      vertex 82.5 25.0465 15.1349
    endloop
  endfacet
  facet normal 1 0 0
    outer loop
      vertex 82.5 0 0
      vertex 82.5 25.0465 15.1349
      vertex 82.5 23.5353 14.8466
    endloop
  endfacet
  facet normal 1 0 0
    outer loop
      vertex 82.5 0 0
      vertex 82.5 23.5353 14.8466
      vertex 82.5 22 14.75
    endloop
  endfacet
  facet normal 1 0 0
    outer loop
      vertex 82.5 0 0
      vertex 82.5 22 14.75
      vertex 82.5 20.4647 14.8466
    endloop
  endfacet
  facet normal 1 0 0
    outer loop
      vertex 82.5 9.77417 27.7692
      vertex 82.5 0 0
      vertex 82.5 9.77417 26.2308
    endloop
  endfacet
  facet normal 1 0 0
    outer loop
      vertex 82.5 9.77417 26.2308
      vertex 82.5 0 0
      vertex 82.5 9.96698 24.7046
    endloop
  endfacet
  facet normal 1 0 0
    outer loop
      vertex 82.5 72.4905 15.6102
      vertex 82.5 0 0
      vertex 82.5 100 0
    endloop
  endfacet
  facet normal 1 0 0
    outer loop
      vertex 82.5 18.9535 15.1349
      vertex 82.5 0 0
      vertex 82.5 20.4647 14.8466
    endloop
  endfacet
  facet normal 1 0 0
    outer loop
      vertex 82.5 17.4905 15.6102
      vertex 82.5 0 0
      vertex 82.5 18.9535 15.1349
    endloop
  endfacet
  facet normal 1 0 0
    outer loop
      vertex 82.5 16.0985 16.2652
      vertex 82.5 0 0
      vertex 82.5 17.4905 15.6102
    endloop
  endfacet
  facet normal 1 0 0
    outer loop
      vertex 82.5 14.7996 17.0895
      vertex 82.5 0 0
      vertex 82.5 16.0985 16.2652
    endloop
  endfacet
  facet normal 1 0 0
    outer loop
      vertex 82.5 13.6143 18.0701
      vertex 82.5 0 0
      vertex 82.5 14.7996 17.0895
    endloop
  endfacet
  facet normal 1 0 0
    outer loop
      vertex 82.5 12.5612 19.1916
      vertex 82.5 0 0
      vertex 82.5 13.6143 18.0701
    endloop
  endfacet
  facet normal 1 0 0
    outer loop
      vertex 82.5 11.657 20.4361
      vertex 82.5 0 0
      vertex 82.5 12.5612 19.1916
    endloop
  endfacet
  facet normal 1 0 0
    outer loop
      vertex 82.5 10.9159 21.7842
      vertex 82.5 0 0
      vertex 82.5 11.657 20.4361
    endloop
  endfacet
  facet normal 1 0 0
    outer loop
      vertex 82.5 10.3496 23.2145
      vertex 82.5 0 0
      vertex 82.5 10.9159 21.7842
    endloop
  endfacet
  facet normal 1 0 0
    outer loop
      vertex 82.5 9.96698 24.7046
      vertex 82.5 0 0
      vertex 82.5 10.3496 23.2145
    endloop
  endfacet
  facet normal 1 0 0
    outer loop
      vertex 82.5 87.343 33.5639
      vertex 82.5 86 44
      vertex 82.5 86.4388 34.8084
    endloop
  endfacet
  facet normal 1 0 0
    outer loop
      vertex 82.5 86 44
      vertex 82.5 85.3857 35.9299
      vertex 82.5 86.4388 34.8084
    endloop
  endfacet
  facet normal 1 0 0
    outer loop
      vertex 82.5 86 44
      vertex 82.5 84.2004 36.9105
      vertex 82.5 85.3857 35.9299
    endloop
  endfacet
  facet normal 1 0 0
    outer loop
      vertex 82.5 86 44
      vertex 82.5 82.9015 37.7348
      vertex 82.5 84.2004 36.9105
    endloop
  endfacet
  facet normal 1 0 0
    outer loop
      vertex 82.5 86 44
      vertex 82.5 81.5095 38.3898
      vertex 82.5 82.9015 37.7348
    endloop
  endfacet
  facet normal 1 0 0
    outer loop
      vertex 82.5 86 44
      vertex 82.5 80.0464 38.8651
      vertex 82.5 81.5095 38.3898
    endloop
  endfacet
  facet normal 1 0 0
    outer loop
      vertex 82.5 86 44
      vertex 82.5 78.5353 39.1534
      vertex 82.5 80.0464 38.8651
    endloop
  endfacet
  facet normal 1 0 0
    outer loop
      vertex 82.5 86 44
      vertex 82.5 77 39.25
      vertex 82.5 78.5353 39.1534
    endloop
  endfacet
  facet normal 1 0 0
    outer loop
      vertex 82.5 86 44
      vertex 82.5 75.4647 39.1534
      vertex 82.5 77 39.25
    endloop
  endfacet
  facet normal 1 -0 0
    outer loop
      vertex 82.5 55 44
      vertex 82.5 75.4647 39.1534
      vertex 82.5 86 44
    endloop
  endfacet
  facet normal 1 0 0
    outer loop
      vertex 82.5 75.4647 39.1534
      vertex 82.5 55 44
      vertex 82.5 73.9536 38.8651
    endloop
  endfacet
  facet normal 1 0 0
    outer loop
      vertex 82.5 34.2258 27.7692
      vertex 82.5 64.7742 27.7692
      vertex 82.5 55 44
    endloop
  endfacet
  facet normal 1 0 0
    outer loop
      vertex 82.5 64.967 29.2954
      vertex 82.5 55 44
      vertex 82.5 64.7742 27.7692
    endloop
  endfacet
  facet normal 1 0 0
    outer loop
      vertex 82.5 65.3496 30.7855
      vertex 82.5 55 44
      vertex 82.5 64.967 29.2954
    endloop
  endfacet
  facet normal 1 0 0
    outer loop
      vertex 82.5 65.9159 32.2158
      vertex 82.5 55 44
      vertex 82.5 65.3496 30.7855
    endloop
  endfacet
  facet normal 1 0 0
    outer loop
      vertex 82.5 66.657 33.5639
      vertex 82.5 55 44
      vertex 82.5 65.9159 32.2158
    endloop
  endfacet
  facet normal 1 0 0
    outer loop
      vertex 82.5 67.5612 34.8084
      vertex 82.5 55 44
      vertex 82.5 66.657 33.5639
    endloop
  endfacet
  facet normal 1 0 0
    outer loop
      vertex 82.5 68.6143 35.9299
      vertex 82.5 55 44
      vertex 82.5 67.5612 34.8084
    endloop
  endfacet
  facet normal 1 0 0
    outer loop
      vertex 82.5 69.7996 36.9105
      vertex 82.5 55 44
      vertex 82.5 68.6143 35.9299
    endloop
  endfacet
  facet normal 1 0 0
    outer loop
      vertex 82.5 71.0985 37.7348
      vertex 82.5 55 44
      vertex 82.5 69.7996 36.9105
    endloop
  endfacet
  facet normal 1 0 0
    outer loop
      vertex 82.5 72.4905 38.3898
      vertex 82.5 55 44
      vertex 82.5 71.0985 37.7348
    endloop
  endfacet
  facet normal 1 0 0
    outer loop
      vertex 82.5 73.9536 38.8651
      vertex 82.5 55 44
      vertex 82.5 72.4905 38.3898
    endloop
  endfacet
  facet normal 0 -0.0627905 0.998027
    outer loop
      vertex 80 23.5353 14.8466
      vertex 82.5 22 14.75
      vertex 82.5 23.5353 14.8466
    endloop
  endfacet
  facet normal 0 -0.0627905 0.998027
    outer loop
      vertex 82.5 22 14.75
      vertex 80 23.5353 14.8466
      vertex 80 22 14.75
    endloop
  endfacet
  facet normal 0 -0.0627911 -0.998027
    outer loop
      vertex 80 22 39.25
      vertex 82.5 23.5353 39.1534
      vertex 82.5 22 39.25
    endloop
  endfacet
  facet normal -0 -0.0627911 -0.998027
    outer loop
      vertex 82.5 23.5353 39.1534
      vertex 80 22 39.25
      vertex 80 23.5353 39.1534
    endloop
  endfacet
  facet normal 0 1 -0
    outer loop
      vertex 82.5 9.77417 26.2308
      vertex 80 9.77417 27.7692
      vertex 82.5 9.77417 27.7692
    endloop
  endfacet
  facet normal 0 1 0
    outer loop
      vertex 80 9.77417 27.7692
      vertex 82.5 9.77417 26.2308
      vertex 80 9.77417 26.2308
    endloop
  endfacet
  facet normal -0 0.637423 0.770514
    outer loop
      vertex 80 14.7996 17.0895
      vertex 82.5 13.6143 18.0701
      vertex 82.5 14.7996 17.0895
    endloop
  endfacet
  facet normal 0 0.637423 0.770514
    outer loop
      vertex 82.5 13.6143 18.0701
      vertex 80 14.7996 17.0895
      vertex 80 13.6143 18.0701
    endloop
  endfacet
  facet normal 0 -0.728969 0.684547
    outer loop
      vertex 80 30.3857 18.0701
      vertex 82.5 31.4388 19.1916
      vertex 80 31.4388 19.1916
    endloop
  endfacet
  facet normal 0 -0.728969 0.684547
    outer loop
      vertex 82.5 31.4388 19.1916
      vertex 80 30.3857 18.0701
      vertex 82.5 30.3857 18.0701
    endloop
  endfacet
  facet normal 0 -0.728969 -0.684547
    outer loop
      vertex 80 31.4388 34.8084
      vertex 82.5 30.3857 35.9299
      vertex 80 30.3857 35.9299
    endloop
  endfacet
  facet normal 0 -0.728969 -0.684547
    outer loop
      vertex 82.5 30.3857 35.9299
      vertex 80 31.4388 34.8084
      vertex 82.5 31.4388 34.8084
    endloop
  endfacet
  facet normal 0 -0.929776 -0.368126
    outer loop
      vertex 80 33.6504 30.7855
      vertex 82.5 33.0841 32.2158
      vertex 80 33.0841 32.2158
    endloop
  endfacet
  facet normal 0 -0.929776 -0.368126
    outer loop
      vertex 82.5 33.0841 32.2158
      vertex 80 33.6504 30.7855
      vertex 82.5 33.6504 30.7855
    endloop
  endfacet
  facet normal 0 -0.535827 0.844328
    outer loop
      vertex 80 29.2004 17.0895
      vertex 82.5 27.9015 16.2652
      vertex 82.5 29.2004 17.0895
    endloop
  endfacet
  facet normal 0 -0.535827 0.844328
    outer loop
      vertex 82.5 27.9015 16.2652
      vertex 80 29.2004 17.0895
      vertex 80 27.9015 16.2652
    endloop
  endfacet
  facet normal 0 -0.809016 0.587786
    outer loop
      vertex 80 31.4388 19.1916
      vertex 82.5 32.343 20.4361
      vertex 80 32.343 20.4361
    endloop
  endfacet
  facet normal 0 -0.809016 0.587786
    outer loop
      vertex 82.5 32.343 20.4361
      vertex 80 31.4388 19.1916
      vertex 82.5 31.4388 19.1916
    endloop
  endfacet
  facet normal 0 -0.535827 -0.844328
    outer loop
      vertex 80 27.9015 37.7348
      vertex 82.5 29.2004 36.9105
      vertex 82.5 27.9015 37.7348
    endloop
  endfacet
  facet normal -0 -0.535827 -0.844328
    outer loop
      vertex 82.5 29.2004 36.9105
      vertex 80 27.9015 37.7348
      vertex 80 29.2004 36.9105
    endloop
  endfacet
  facet normal 0 -0.637425 -0.770512
    outer loop
      vertex 80 29.2004 36.9105
      vertex 82.5 30.3857 35.9299
      vertex 82.5 29.2004 36.9105
    endloop
  endfacet
  facet normal -0 -0.637425 -0.770512
    outer loop
      vertex 82.5 30.3857 35.9299
      vertex 80 29.2004 36.9105
      vertex 80 30.3857 35.9299
    endloop
  endfacet
  facet normal 0 -0.876307 -0.481753
    outer loop
      vertex 80 33.0841 32.2158
      vertex 82.5 32.343 33.5639
      vertex 80 32.343 33.5639
    endloop
  endfacet
  facet normal 0 -0.876307 -0.481753
    outer loop
      vertex 82.5 32.343 33.5639
      vertex 80 33.0841 32.2158
      vertex 82.5 33.0841 32.2158
    endloop
  endfacet
  facet normal 0 -0.968583 -0.24869
    outer loop
      vertex 80 34.033 29.2954
      vertex 82.5 33.6504 30.7855
      vertex 80 33.6504 30.7855
    endloop
  endfacet
  facet normal 0 -0.968583 -0.24869
    outer loop
      vertex 82.5 33.6504 30.7855
      vertex 80 34.033 29.2954
      vertex 82.5 34.033 29.2954
    endloop
  endfacet
  facet normal 0 0.929777 0.368124
    outer loop
      vertex 82.5 10.9159 21.7842
      vertex 80 10.3496 23.2145
      vertex 82.5 10.3496 23.2145
    endloop
  endfacet
  facet normal 0 0.929777 0.368124
    outer loop
      vertex 80 10.3496 23.2145
      vertex 82.5 10.9159 21.7842
      vertex 80 10.9159 21.7842
    endloop
  endfacet
  facet normal 0 -0.187381 0.982287
    outer loop
      vertex 80 25.0465 15.1349
      vertex 82.5 23.5353 14.8466
      vertex 82.5 25.0465 15.1349
    endloop
  endfacet
  facet normal 0 -0.187381 0.982287
    outer loop
      vertex 82.5 23.5353 14.8466
      vertex 80 25.0465 15.1349
      vertex 80 23.5353 14.8466
    endloop
  endfacet
  facet normal 0 -0.42578 0.904827
    outer loop
      vertex 80 27.9015 16.2652
      vertex 82.5 26.5095 15.6102
      vertex 82.5 27.9015 16.2652
    endloop
  endfacet
  facet normal 0 -0.42578 0.904827
    outer loop
      vertex 82.5 26.5095 15.6102
      vertex 80 27.9015 16.2652
      vertex 80 26.5095 15.6102
    endloop
  endfacet
  facet normal 0 -0.637424 0.770513
    outer loop
      vertex 80 30.3857 18.0701
      vertex 82.5 29.2004 17.0895
      vertex 82.5 30.3857 18.0701
    endloop
  endfacet
  facet normal 0 -0.637424 0.770513
    outer loop
      vertex 82.5 29.2004 17.0895
      vertex 80 30.3857 18.0701
      vertex 80 29.2004 17.0895
    endloop
  endfacet
  facet normal 0 -0.968583 0.24869
    outer loop
      vertex 80 33.6504 23.2145
      vertex 82.5 34.033 24.7046
      vertex 80 34.033 24.7046
    endloop
  endfacet
  facet normal 0 -0.968583 0.24869
    outer loop
      vertex 82.5 34.033 24.7046
      vertex 80 33.6504 23.2145
      vertex 82.5 33.6504 23.2145
    endloop
  endfacet
  facet normal 0 -1 0
    outer loop
      vertex 80 34.2258 26.2308
      vertex 82.5 34.2258 27.7692
      vertex 80 34.2258 27.7692
    endloop
  endfacet
  facet normal 0 -1 -0
    outer loop
      vertex 82.5 34.2258 27.7692
      vertex 80 34.2258 26.2308
      vertex 82.5 34.2258 26.2308
    endloop
  endfacet
  facet normal 0 -0.876307 0.481752
    outer loop
      vertex 80 32.343 20.4361
      vertex 82.5 33.0841 21.7842
      vertex 80 33.0841 21.7842
    endloop
  endfacet
  facet normal 0 -0.876307 0.481752
    outer loop
      vertex 82.5 33.0841 21.7842
      vertex 80 32.343 20.4361
      vertex 82.5 32.343 20.4361
    endloop
  endfacet
  facet normal 0 -0.929776 0.368126
    outer loop
      vertex 80 33.0841 21.7842
      vertex 82.5 33.6504 23.2145
      vertex 80 33.6504 23.2145
    endloop
  endfacet
  facet normal 0 -0.929776 0.368126
    outer loop
      vertex 82.5 33.6504 23.2145
      vertex 80 33.0841 21.7842
      vertex 82.5 33.0841 21.7842
    endloop
  endfacet
  facet normal 0 -0.42578 -0.904827
    outer loop
      vertex 80 26.5095 38.3898
      vertex 82.5 27.9015 37.7348
      vertex 82.5 26.5095 38.3898
    endloop
  endfacet
  facet normal -0 -0.42578 -0.904827
    outer loop
      vertex 82.5 27.9015 37.7348
      vertex 80 26.5095 38.3898
      vertex 80 27.9015 37.7348
    endloop
  endfacet
  facet normal 0 -0.309016 -0.951057
    outer loop
      vertex 80 25.0465 38.8651
      vertex 82.5 26.5095 38.3898
      vertex 82.5 25.0465 38.8651
    endloop
  endfacet
  facet normal -0 -0.309016 -0.951057
    outer loop
      vertex 82.5 26.5095 38.3898
      vertex 80 25.0465 38.8651
      vertex 80 26.5095 38.3898
    endloop
  endfacet
  facet normal 0 -0.187381 -0.982287
    outer loop
      vertex 80 23.5353 39.1534
      vertex 82.5 25.0465 38.8651
      vertex 82.5 23.5353 39.1534
    endloop
  endfacet
  facet normal -0 -0.187381 -0.982287
    outer loop
      vertex 82.5 25.0465 38.8651
      vertex 80 23.5353 39.1534
      vertex 80 25.0465 38.8651
    endloop
  endfacet
  facet normal 0 -0.992115 -0.125332
    outer loop
      vertex 80 34.2258 27.7692
      vertex 82.5 34.033 29.2954
      vertex 80 34.033 29.2954
    endloop
  endfacet
  facet normal 0 -0.992115 -0.125332
    outer loop
      vertex 82.5 34.033 29.2954
      vertex 80 34.2258 27.7692
      vertex 82.5 34.2258 27.7692
    endloop
  endfacet
  facet normal -0 0.0627905 0.998027
    outer loop
      vertex 80 22 14.75
      vertex 82.5 20.4647 14.8466
      vertex 82.5 22 14.75
    endloop
  endfacet
  facet normal 0 0.0627905 0.998027
    outer loop
      vertex 82.5 20.4647 14.8466
      vertex 80 22 14.75
      vertex 80 20.4647 14.8466
    endloop
  endfacet
  facet normal -0 0.309017 0.951057
    outer loop
      vertex 80 18.9535 15.1349
      vertex 82.5 17.4905 15.6102
      vertex 82.5 18.9535 15.1349
    endloop
  endfacet
  facet normal 0 0.309017 0.951057
    outer loop
      vertex 82.5 17.4905 15.6102
      vertex 80 18.9535 15.1349
      vertex 80 17.4905 15.6102
    endloop
  endfacet
  facet normal -0 0.187381 0.982287
    outer loop
      vertex 80 20.4647 14.8466
      vertex 82.5 18.9535 15.1349
      vertex 82.5 20.4647 14.8466
    endloop
  endfacet
  facet normal 0 0.187381 0.982287
    outer loop
      vertex 82.5 18.9535 15.1349
      vertex 80 20.4647 14.8466
      vertex 80 18.9535 15.1349
    endloop
  endfacet
  facet normal 0 0.929777 -0.368124
    outer loop
      vertex 82.5 10.3496 30.7855
      vertex 80 10.9159 32.2158
      vertex 82.5 10.9159 32.2158
    endloop
  endfacet
  facet normal 0 0.929777 -0.368124
    outer loop
      vertex 80 10.9159 32.2158
      vertex 82.5 10.3496 30.7855
      vertex 80 10.3496 30.7855
    endloop
  endfacet
  facet normal 0 0.809017 0.587785
    outer loop
      vertex 82.5 12.5612 19.1916
      vertex 80 11.657 20.4361
      vertex 82.5 11.657 20.4361
    endloop
  endfacet
  facet normal 0 0.809017 0.587785
    outer loop
      vertex 80 11.657 20.4361
      vertex 82.5 12.5612 19.1916
      vertex 80 12.5612 19.1916
    endloop
  endfacet
  facet normal 0 0.876307 0.481754
    outer loop
      vertex 82.5 11.657 20.4361
      vertex 80 10.9159 21.7842
      vertex 82.5 10.9159 21.7842
    endloop
  endfacet
  facet normal 0 0.876307 0.481754
    outer loop
      vertex 80 10.9159 21.7842
      vertex 82.5 11.657 20.4361
      vertex 80 11.657 20.4361
    endloop
  endfacet
  facet normal 0 -0.309017 0.951057
    outer loop
      vertex 80 26.5095 15.6102
      vertex 82.5 25.0465 15.1349
      vertex 82.5 26.5095 15.6102
    endloop
  endfacet
  facet normal 0 -0.309017 0.951057
    outer loop
      vertex 82.5 25.0465 15.1349
      vertex 80 26.5095 15.6102
      vertex 80 25.0465 15.1349
    endloop
  endfacet
  facet normal 0 -0.992115 0.125332
    outer loop
      vertex 80 34.033 24.7046
      vertex 82.5 34.2258 26.2308
      vertex 80 34.2258 26.2308
    endloop
  endfacet
  facet normal 0 -0.992115 0.125332
    outer loop
      vertex 82.5 34.2258 26.2308
      vertex 80 34.033 24.7046
      vertex 82.5 34.033 24.7046
    endloop
  endfacet
  facet normal 0 -0.809016 -0.587787
    outer loop
      vertex 80 32.343 33.5639
      vertex 82.5 31.4388 34.8084
      vertex 80 31.4388 34.8084
    endloop
  endfacet
  facet normal 0 -0.809016 -0.587787
    outer loop
      vertex 82.5 31.4388 34.8084
      vertex 80 32.343 33.5639
      vertex 82.5 32.343 33.5639
    endloop
  endfacet
  facet normal 0 0.0627911 -0.998027
    outer loop
      vertex 80 20.4647 39.1534
      vertex 82.5 22 39.25
      vertex 82.5 20.4647 39.1534
    endloop
  endfacet
  facet normal 0 0.0627911 -0.998027
    outer loop
      vertex 82.5 22 39.25
      vertex 80 20.4647 39.1534
      vertex 80 22 39.25
    endloop
  endfacet
  facet normal 0 0.309016 -0.951057
    outer loop
      vertex 80 17.4905 38.3898
      vertex 82.5 18.9535 38.8651
      vertex 82.5 17.4905 38.3898
    endloop
  endfacet
  facet normal 0 0.309016 -0.951057
    outer loop
      vertex 82.5 18.9535 38.8651
      vertex 80 17.4905 38.3898
      vertex 80 18.9535 38.8651
    endloop
  endfacet
  facet normal 0 0.728969 0.684547
    outer loop
      vertex 82.5 13.6143 18.0701
      vertex 80 12.5612 19.1916
      vertex 82.5 12.5612 19.1916
    endloop
  endfacet
  facet normal 0 0.728969 0.684547
    outer loop
      vertex 80 12.5612 19.1916
      vertex 82.5 13.6143 18.0701
      vertex 80 13.6143 18.0701
    endloop
  endfacet
  facet normal -0 0.42578 0.904827
    outer loop
      vertex 80 17.4905 15.6102
      vertex 82.5 16.0985 16.2652
      vertex 82.5 17.4905 15.6102
    endloop
  endfacet
  facet normal 0 0.42578 0.904827
    outer loop
      vertex 82.5 16.0985 16.2652
      vertex 80 17.4905 15.6102
      vertex 80 16.0985 16.2652
    endloop
  endfacet
  facet normal -0 0.535826 0.844328
    outer loop
      vertex 80 16.0985 16.2652
      vertex 82.5 14.7996 17.0895
      vertex 82.5 16.0985 16.2652
    endloop
  endfacet
  facet normal 0 0.535826 0.844328
    outer loop
      vertex 82.5 14.7996 17.0895
      vertex 80 16.0985 16.2652
      vertex 80 14.7996 17.0895
    endloop
  endfacet
  facet normal 0 0.992115 -0.125334
    outer loop
      vertex 82.5 9.77417 27.7692
      vertex 80 9.96698 29.2954
      vertex 82.5 9.96698 29.2954
    endloop
  endfacet
  facet normal 0 0.992115 -0.125334
    outer loop
      vertex 80 9.96698 29.2954
      vertex 82.5 9.77417 27.7692
      vertex 80 9.77417 27.7692
    endloop
  endfacet
  facet normal 0 0.968583 -0.24869
    outer loop
      vertex 82.5 9.96698 29.2954
      vertex 80 10.3496 30.7855
      vertex 82.5 10.3496 30.7855
    endloop
  endfacet
  facet normal 0 0.968583 -0.24869
    outer loop
      vertex 80 10.3496 30.7855
      vertex 82.5 9.96698 29.2954
      vertex 80 9.96698 29.2954
    endloop
  endfacet
  facet normal 0 0.728969 -0.684547
    outer loop
      vertex 82.5 12.5612 34.8084
      vertex 80 13.6143 35.9299
      vertex 82.5 13.6143 35.9299
    endloop
  endfacet
  facet normal 0 0.728969 -0.684547
    outer loop
      vertex 80 13.6143 35.9299
      vertex 82.5 12.5612 34.8084
      vertex 80 12.5612 34.8084
    endloop
  endfacet
  facet normal 0 0.637425 -0.770512
    outer loop
      vertex 80 13.6143 35.9299
      vertex 82.5 14.7996 36.9105
      vertex 82.5 13.6143 35.9299
    endloop
  endfacet
  facet normal 0 0.637425 -0.770512
    outer loop
      vertex 82.5 14.7996 36.9105
      vertex 80 13.6143 35.9299
      vertex 80 14.7996 36.9105
    endloop
  endfacet
  facet normal 0 0.535826 -0.844328
    outer loop
      vertex 80 14.7996 36.9105
      vertex 82.5 16.0985 37.7348
      vertex 82.5 14.7996 36.9105
    endloop
  endfacet
  facet normal 0 0.535826 -0.844328
    outer loop
      vertex 82.5 16.0985 37.7348
      vertex 80 14.7996 36.9105
      vertex 80 16.0985 37.7348
    endloop
  endfacet
  facet normal 0 0.42578 -0.904827
    outer loop
      vertex 80 16.0985 37.7348
      vertex 82.5 17.4905 38.3898
      vertex 82.5 16.0985 37.7348
    endloop
  endfacet
  facet normal 0 0.42578 -0.904827
    outer loop
      vertex 82.5 17.4905 38.3898
      vertex 80 16.0985 37.7348
      vertex 80 17.4905 38.3898
    endloop
  endfacet
  facet normal 0 0.187381 -0.982287
    outer loop
      vertex 80 18.9535 38.8651
      vertex 82.5 20.4647 39.1534
      vertex 82.5 18.9535 38.8651
    endloop
  endfacet
  facet normal 0 0.187381 -0.982287
    outer loop
      vertex 82.5 20.4647 39.1534
      vertex 80 18.9535 38.8651
      vertex 80 20.4647 39.1534
    endloop
  endfacet
  facet normal 0 0.968583 0.24869
    outer loop
      vertex 82.5 10.3496 23.2145
      vertex 80 9.96698 24.7046
      vertex 82.5 9.96698 24.7046
    endloop
  endfacet
  facet normal 0 0.968583 0.24869
    outer loop
      vertex 80 9.96698 24.7046
      vertex 82.5 10.3496 23.2145
      vertex 80 10.3496 23.2145
    endloop
  endfacet
  facet normal 0 0.992115 0.125334
    outer loop
      vertex 82.5 9.96698 24.7046
      vertex 80 9.77417 26.2308
      vertex 82.5 9.77417 26.2308
    endloop
  endfacet
  facet normal 0 0.992115 0.125334
    outer loop
      vertex 80 9.77417 26.2308
      vertex 82.5 9.96698 24.7046
      vertex 80 9.96698 24.7046
    endloop
  endfacet
  facet normal 0 0.809017 -0.587786
    outer loop
      vertex 82.5 11.657 33.5639
      vertex 80 12.5612 34.8084
      vertex 82.5 12.5612 34.8084
    endloop
  endfacet
  facet normal 0 0.809017 -0.587786
    outer loop
      vertex 80 12.5612 34.8084
      vertex 82.5 11.657 33.5639
      vertex 80 11.657 33.5639
    endloop
  endfacet
  facet normal 0 0.876306 -0.481754
    outer loop
      vertex 82.5 10.9159 32.2158
      vertex 80 11.657 33.5639
      vertex 82.5 11.657 33.5639
    endloop
  endfacet
  facet normal 0 0.876306 -0.481754
    outer loop
      vertex 80 11.657 33.5639
      vertex 82.5 10.9159 32.2158
      vertex 80 10.9159 32.2158
    endloop
  endfacet
  facet normal 0 -0.0627905 0.998027
    outer loop
      vertex 80 78.5353 14.8466
      vertex 82.5 77 14.75
      vertex 82.5 78.5353 14.8466
    endloop
  endfacet
  facet normal 0 -0.0627905 0.998027
    outer loop
      vertex 82.5 77 14.75
      vertex 80 78.5353 14.8466
      vertex 80 77 14.75
    endloop
  endfacet
  facet normal 0 -0.0627911 -0.998027
    outer loop
      vertex 80 77 39.25
      vertex 82.5 78.5353 39.1534
      vertex 82.5 77 39.25
    endloop
  endfacet
  facet normal -0 -0.0627911 -0.998027
    outer loop
      vertex 82.5 78.5353 39.1534
      vertex 80 77 39.25
      vertex 80 78.5353 39.1534
    endloop
  endfacet
  facet normal 0 1 -0
    outer loop
      vertex 82.5 64.7742 26.2308
      vertex 80 64.7742 27.7692
      vertex 82.5 64.7742 27.7692
    endloop
  endfacet
  facet normal 0 1 0
    outer loop
      vertex 80 64.7742 27.7692
      vertex 82.5 64.7742 26.2308
      vertex 80 64.7742 26.2308
    endloop
  endfacet
  facet normal -0 0.637423 0.770514
    outer loop
      vertex 80 69.7996 17.0895
      vertex 82.5 68.6143 18.0701
      vertex 82.5 69.7996 17.0895
    endloop
  endfacet
  facet normal 0 0.637423 0.770514
    outer loop
      vertex 82.5 68.6143 18.0701
      vertex 80 69.7996 17.0895
      vertex 80 68.6143 18.0701
    endloop
  endfacet
  facet normal 0 -0.728969 -0.684547
    outer loop
      vertex 80 86.4388 34.8084
      vertex 82.5 85.3857 35.9299
      vertex 80 85.3857 35.9299
    endloop
  endfacet
  facet normal 0 -0.728969 -0.684547
    outer loop
      vertex 82.5 85.3857 35.9299
      vertex 80 86.4388 34.8084
      vertex 82.5 86.4388 34.8084
    endloop
  endfacet
  facet normal 0 -0.929776 -0.368126
    outer loop
      vertex 80 88.6504 30.7855
      vertex 82.5 88.0841 32.2158
      vertex 80 88.0841 32.2158
    endloop
  endfacet
  facet normal 0 -0.929776 -0.368126
    outer loop
      vertex 82.5 88.0841 32.2158
      vertex 80 88.6504 30.7855
      vertex 82.5 88.6504 30.7855
    endloop
  endfacet
  facet normal 0 -0.535826 0.844328
    outer loop
      vertex 80 84.2004 17.0895
      vertex 82.5 82.9015 16.2652
      vertex 82.5 84.2004 17.0895
    endloop
  endfacet
  facet normal 0 -0.535826 0.844328
    outer loop
      vertex 82.5 82.9015 16.2652
      vertex 80 84.2004 17.0895
      vertex 80 82.9015 16.2652
    endloop
  endfacet
  facet normal 0 -0.809018 0.587784
    outer loop
      vertex 80 86.4388 19.1916
      vertex 82.5 87.343 20.4361
      vertex 80 87.343 20.4361
    endloop
  endfacet
  facet normal 0 -0.809018 0.587784
    outer loop
      vertex 82.5 87.343 20.4361
      vertex 80 86.4388 19.1916
      vertex 82.5 86.4388 19.1916
    endloop
  endfacet
  facet normal 0 -0.425779 -0.904827
    outer loop
      vertex 80 81.5095 38.3898
      vertex 82.5 82.9015 37.7348
      vertex 82.5 81.5095 38.3898
    endloop
  endfacet
  facet normal -0 -0.425779 -0.904827
    outer loop
      vertex 82.5 82.9015 37.7348
      vertex 80 81.5095 38.3898
      vertex 80 82.9015 37.7348
    endloop
  endfacet
  facet normal 0 -0.637425 -0.770513
    outer loop
      vertex 80 84.2004 36.9105
      vertex 82.5 85.3857 35.9299
      vertex 82.5 84.2004 36.9105
    endloop
  endfacet
  facet normal -0 -0.637425 -0.770513
    outer loop
      vertex 82.5 85.3857 35.9299
      vertex 80 84.2004 36.9105
      vertex 80 85.3857 35.9299
    endloop
  endfacet
  facet normal 0 -0.876307 -0.481753
    outer loop
      vertex 80 88.0841 32.2158
      vertex 82.5 87.343 33.5639
      vertex 80 87.343 33.5639
    endloop
  endfacet
  facet normal 0 -0.876307 -0.481753
    outer loop
      vertex 82.5 87.343 33.5639
      vertex 80 88.0841 32.2158
      vertex 82.5 88.0841 32.2158
    endloop
  endfacet
  facet normal 0 -0.968583 -0.24869
    outer loop
      vertex 80 89.033 29.2954
      vertex 82.5 88.6504 30.7855
      vertex 80 88.6504 30.7855
    endloop
  endfacet
  facet normal 0 -0.968583 -0.24869
    outer loop
      vertex 82.5 88.6504 30.7855
      vertex 80 89.033 29.2954
      vertex 82.5 89.033 29.2954
    endloop
  endfacet
  facet normal 0 0.929776 0.368126
    outer loop
      vertex 82.5 65.9159 21.7842
      vertex 80 65.3496 23.2145
      vertex 82.5 65.3496 23.2145
    endloop
  endfacet
  facet normal 0 0.929776 0.368126
    outer loop
      vertex 80 65.3496 23.2145
      vertex 82.5 65.9159 21.7842
      vertex 80 65.9159 21.7842
    endloop
  endfacet
  facet normal 0 -0.187382 0.982287
    outer loop
      vertex 80 80.0464 15.1349
      vertex 82.5 78.5353 14.8466
      vertex 82.5 80.0464 15.1349
    endloop
  endfacet
  facet normal 0 -0.187382 0.982287
    outer loop
      vertex 82.5 78.5353 14.8466
      vertex 80 80.0464 15.1349
      vertex 80 78.5353 14.8466
    endloop
  endfacet
  facet normal 0 -0.425779 0.904827
    outer loop
      vertex 80 82.9015 16.2652
      vertex 82.5 81.5095 15.6102
      vertex 82.5 82.9015 16.2652
    endloop
  endfacet
  facet normal 0 -0.425779 0.904827
    outer loop
      vertex 82.5 81.5095 15.6102
      vertex 80 82.9015 16.2652
      vertex 80 81.5095 15.6102
    endloop
  endfacet
  facet normal 0 -0.637423 0.770514
    outer loop
      vertex 80 85.3857 18.0701
      vertex 82.5 84.2004 17.0895
      vertex 82.5 85.3857 18.0701
    endloop
  endfacet
  facet normal 0 -0.637423 0.770514
    outer loop
      vertex 82.5 84.2004 17.0895
      vertex 80 85.3857 18.0701
      vertex 80 84.2004 17.0895
    endloop
  endfacet
  facet normal 0 -0.968583 0.24869
    outer loop
      vertex 80 88.6504 23.2145
      vertex 82.5 89.033 24.7046
      vertex 80 89.033 24.7046
    endloop
  endfacet
  facet normal 0 -0.968583 0.24869
    outer loop
      vertex 82.5 89.033 24.7046
      vertex 80 88.6504 23.2145
      vertex 82.5 88.6504 23.2145
    endloop
  endfacet
  facet normal 0 -1 0
    outer loop
      vertex 80 89.2258 26.2308
      vertex 82.5 89.2258 27.7692
      vertex 80 89.2258 27.7692
    endloop
  endfacet
  facet normal 0 -1 -0
    outer loop
      vertex 82.5 89.2258 27.7692
      vertex 80 89.2258 26.2308
      vertex 82.5 89.2258 26.2308
    endloop
  endfacet
  facet normal 0 -0.876307 0.481752
    outer loop
      vertex 80 87.343 20.4361
      vertex 82.5 88.0841 21.7842
      vertex 80 88.0841 21.7842
    endloop
  endfacet
  facet normal 0 -0.876307 0.481752
    outer loop
      vertex 82.5 88.0841 21.7842
      vertex 80 87.343 20.4361
      vertex 82.5 87.343 20.4361
    endloop
  endfacet
  facet normal 0 -0.535826 -0.844328
    outer loop
      vertex 80 82.9015 37.7348
      vertex 82.5 84.2004 36.9105
      vertex 82.5 82.9015 37.7348
    endloop
  endfacet
  facet normal -0 -0.535826 -0.844328
    outer loop
      vertex 82.5 84.2004 36.9105
      vertex 80 82.9015 37.7348
      vertex 80 84.2004 36.9105
    endloop
  endfacet
  facet normal 0 -0.309016 -0.951057
    outer loop
      vertex 80 80.0464 38.8651
      vertex 82.5 81.5095 38.3898
      vertex 82.5 80.0464 38.8651
    endloop
  endfacet
  facet normal -0 -0.309016 -0.951057
    outer loop
      vertex 82.5 81.5095 38.3898
      vertex 80 80.0464 38.8651
      vertex 80 81.5095 38.3898
    endloop
  endfacet
  facet normal 0 -0.187382 -0.982287
    outer loop
      vertex 80 78.5353 39.1534
      vertex 82.5 80.0464 38.8651
      vertex 82.5 78.5353 39.1534
    endloop
  endfacet
  facet normal -0 -0.187382 -0.982287
    outer loop
      vertex 82.5 80.0464 38.8651
      vertex 80 78.5353 39.1534
      vertex 80 80.0464 38.8651
    endloop
  endfacet
  facet normal 0 -0.809017 -0.587785
    outer loop
      vertex 80 87.343 33.5639
      vertex 82.5 86.4388 34.8084
      vertex 80 86.4388 34.8084
    endloop
  endfacet
  facet normal 0 -0.809017 -0.587785
    outer loop
      vertex 82.5 86.4388 34.8084
      vertex 80 87.343 33.5639
      vertex 82.5 87.343 33.5639
    endloop
  endfacet
  facet normal 0 -0.992115 -0.125334
    outer loop
      vertex 80 89.2258 27.7692
      vertex 82.5 89.033 29.2954
      vertex 80 89.033 29.2954
    endloop
  endfacet
  facet normal 0 -0.992115 -0.125334
    outer loop
      vertex 82.5 89.033 29.2954
      vertex 80 89.2258 27.7692
      vertex 82.5 89.2258 27.7692
    endloop
  endfacet
  facet normal -0 0.309015 0.951057
    outer loop
      vertex 80 73.9536 15.1349
      vertex 82.5 72.4905 15.6102
      vertex 82.5 73.9536 15.1349
    endloop
  endfacet
  facet normal 0 0.309015 0.951057
    outer loop
      vertex 82.5 72.4905 15.6102
      vertex 80 73.9536 15.1349
      vertex 80 72.4905 15.6102
    endloop
  endfacet
  facet normal -0 0.187382 0.982287
    outer loop
      vertex 80 75.4647 14.8466
      vertex 82.5 73.9536 15.1349
      vertex 82.5 75.4647 14.8466
    endloop
  endfacet
  facet normal 0 0.187382 0.982287
    outer loop
      vertex 82.5 73.9536 15.1349
      vertex 80 75.4647 14.8466
      vertex 80 73.9536 15.1349
    endloop
  endfacet
  facet normal 0 0.425781 -0.904826
    outer loop
      vertex 80 71.0985 37.7348
      vertex 82.5 72.4905 38.3898
      vertex 82.5 71.0985 37.7348
    endloop
  endfacet
  facet normal 0 0.425781 -0.904826
    outer loop
      vertex 82.5 72.4905 38.3898
      vertex 80 71.0985 37.7348
      vertex 80 72.4905 38.3898
    endloop
  endfacet
  facet normal 0 0.809018 0.587784
    outer loop
      vertex 82.5 67.5612 19.1916
      vertex 80 66.657 20.4361
      vertex 82.5 66.657 20.4361
    endloop
  endfacet
  facet normal 0 0.809018 0.587784
    outer loop
      vertex 80 66.657 20.4361
      vertex 82.5 67.5612 19.1916
      vertex 80 67.5612 19.1916
    endloop
  endfacet
  facet normal 0 -0.309017 0.951057
    outer loop
      vertex 80 81.5095 15.6102
      vertex 82.5 80.0464 15.1349
      vertex 82.5 81.5095 15.6102
    endloop
  endfacet
  facet normal 0 -0.309017 0.951057
    outer loop
      vertex 82.5 80.0464 15.1349
      vertex 80 81.5095 15.6102
      vertex 80 80.0464 15.1349
    endloop
  endfacet
  facet normal 0 -0.728969 0.684547
    outer loop
      vertex 80 85.3857 18.0701
      vertex 82.5 86.4388 19.1916
      vertex 80 86.4388 19.1916
    endloop
  endfacet
  facet normal 0 -0.728969 0.684547
    outer loop
      vertex 82.5 86.4388 19.1916
      vertex 80 85.3857 18.0701
      vertex 82.5 85.3857 18.0701
    endloop
  endfacet
  facet normal 0 -0.992115 0.125334
    outer loop
      vertex 80 89.033 24.7046
      vertex 82.5 89.2258 26.2308
      vertex 80 89.2258 26.2308
    endloop
  endfacet
  facet normal 0 -0.992115 0.125334
    outer loop
      vertex 82.5 89.2258 26.2308
      vertex 80 89.033 24.7046
      vertex 82.5 89.033 24.7046
    endloop
  endfacet
  facet normal 0 -0.929776 0.368126
    outer loop
      vertex 80 88.0841 21.7842
      vertex 82.5 88.6504 23.2145
      vertex 80 88.6504 23.2145
    endloop
  endfacet
  facet normal 0 -0.929776 0.368126
    outer loop
      vertex 82.5 88.6504 23.2145
      vertex 80 88.0841 21.7842
      vertex 82.5 88.0841 21.7842
    endloop
  endfacet
  facet normal -0 0.535826 0.844328
    outer loop
      vertex 80 71.0985 16.2652
      vertex 82.5 69.7996 17.0895
      vertex 82.5 71.0985 16.2652
    endloop
  endfacet
  facet normal 0 0.535826 0.844328
    outer loop
      vertex 82.5 69.7996 17.0895
      vertex 80 71.0985 16.2652
      vertex 80 69.7996 17.0895
    endloop
  endfacet
  facet normal -0 0.0627905 0.998027
    outer loop
      vertex 80 77 14.75
      vertex 82.5 75.4647 14.8466
      vertex 82.5 77 14.75
    endloop
  endfacet
  facet normal 0 0.0627905 0.998027
    outer loop
      vertex 82.5 75.4647 14.8466
      vertex 80 77 14.75
      vertex 80 75.4647 14.8466
    endloop
  endfacet
  facet normal 0 0.637425 -0.770513
    outer loop
      vertex 80 68.6143 35.9299
      vertex 82.5 69.7996 36.9105
      vertex 82.5 68.6143 35.9299
    endloop
  endfacet
  facet normal 0 0.637425 -0.770513
    outer loop
      vertex 82.5 69.7996 36.9105
      vertex 80 68.6143 35.9299
      vertex 80 69.7996 36.9105
    endloop
  endfacet
  facet normal 0 0.0627911 -0.998027
    outer loop
      vertex 80 75.4647 39.1534
      vertex 82.5 77 39.25
      vertex 82.5 75.4647 39.1534
    endloop
  endfacet
  facet normal 0 0.0627911 -0.998027
    outer loop
      vertex 82.5 77 39.25
      vertex 80 75.4647 39.1534
      vertex 80 77 39.25
    endloop
  endfacet
  facet normal 0 0.309015 -0.951057
    outer loop
      vertex 80 72.4905 38.3898
      vertex 82.5 73.9536 38.8651
      vertex 82.5 72.4905 38.3898
    endloop
  endfacet
  facet normal 0 0.309015 -0.951057
    outer loop
      vertex 82.5 73.9536 38.8651
      vertex 80 72.4905 38.3898
      vertex 80 73.9536 38.8651
    endloop
  endfacet
  facet normal 0 0.992115 0.125334
    outer loop
      vertex 82.5 64.967 24.7046
      vertex 80 64.7742 26.2308
      vertex 82.5 64.7742 26.2308
    endloop
  endfacet
  facet normal 0 0.992115 0.125334
    outer loop
      vertex 80 64.7742 26.2308
      vertex 82.5 64.967 24.7046
      vertex 80 64.967 24.7046
    endloop
  endfacet
  facet normal 0 0.728969 0.684547
    outer loop
      vertex 82.5 68.6143 18.0701
      vertex 80 67.5612 19.1916
      vertex 82.5 67.5612 19.1916
    endloop
  endfacet
  facet normal 0 0.728969 0.684547
    outer loop
      vertex 80 67.5612 19.1916
      vertex 82.5 68.6143 18.0701
      vertex 80 68.6143 18.0701
    endloop
  endfacet
  facet normal 0 0.876307 0.481752
    outer loop
      vertex 82.5 66.657 20.4361
      vertex 80 65.9159 21.7842
      vertex 82.5 65.9159 21.7842
    endloop
  endfacet
  facet normal 0 0.876307 0.481752
    outer loop
      vertex 80 65.9159 21.7842
      vertex 82.5 66.657 20.4361
      vertex 80 66.657 20.4361
    endloop
  endfacet
  facet normal -0 0.425781 0.904826
    outer loop
      vertex 80 72.4905 15.6102
      vertex 82.5 71.0985 16.2652
      vertex 82.5 72.4905 15.6102
    endloop
  endfacet
  facet normal 0 0.425781 0.904826
    outer loop
      vertex 82.5 71.0985 16.2652
      vertex 80 72.4905 15.6102
      vertex 80 71.0985 16.2652
    endloop
  endfacet
  facet normal 0 0.992115 -0.125334
    outer loop
      vertex 82.5 64.7742 27.7692
      vertex 80 64.967 29.2954
      vertex 82.5 64.967 29.2954
    endloop
  endfacet
  facet normal 0 0.992115 -0.125334
    outer loop
      vertex 80 64.967 29.2954
      vertex 82.5 64.7742 27.7692
      vertex 80 64.7742 27.7692
    endloop
  endfacet
  facet normal 0 0.968583 -0.24869
    outer loop
      vertex 82.5 64.967 29.2954
      vertex 80 65.3496 30.7855
      vertex 82.5 65.3496 30.7855
    endloop
  endfacet
  facet normal 0 0.968583 -0.24869
    outer loop
      vertex 80 65.3496 30.7855
      vertex 82.5 64.967 29.2954
      vertex 80 64.967 29.2954
    endloop
  endfacet
  facet normal 0 0.535826 -0.844328
    outer loop
      vertex 80 69.7996 36.9105
      vertex 82.5 71.0985 37.7348
      vertex 82.5 69.7996 36.9105
    endloop
  endfacet
  facet normal 0 0.535826 -0.844328
    outer loop
      vertex 82.5 71.0985 37.7348
      vertex 80 69.7996 36.9105
      vertex 80 71.0985 37.7348
    endloop
  endfacet
  facet normal 0 0.728969 -0.684547
    outer loop
      vertex 82.5 67.5612 34.8084
      vertex 80 68.6143 35.9299
      vertex 82.5 68.6143 35.9299
    endloop
  endfacet
  facet normal 0 0.728969 -0.684547
    outer loop
      vertex 80 68.6143 35.9299
      vertex 82.5 67.5612 34.8084
      vertex 80 67.5612 34.8084
    endloop
  endfacet
  facet normal 0 0.187382 -0.982287
    outer loop
      vertex 80 73.9536 38.8651
      vertex 82.5 75.4647 39.1534
      vertex 82.5 73.9536 38.8651
    endloop
  endfacet
  facet normal 0 0.187382 -0.982287
    outer loop
      vertex 82.5 75.4647 39.1534
      vertex 80 73.9536 38.8651
      vertex 80 75.4647 39.1534
    endloop
  endfacet
  facet normal 0 0.968583 0.24869
    outer loop
      vertex 82.5 65.3496 23.2145
      vertex 80 64.967 24.7046
      vertex 82.5 64.967 24.7046
    endloop
  endfacet
  facet normal 0 0.968583 0.24869
    outer loop
      vertex 80 64.967 24.7046
      vertex 82.5 65.3496 23.2145
      vertex 80 65.3496 23.2145
    endloop
  endfacet
  facet normal 0 0.809017 -0.587785
    outer loop
      vertex 82.5 66.657 33.5639
      vertex 80 67.5612 34.8084
      vertex 82.5 67.5612 34.8084
    endloop
  endfacet
  facet normal 0 0.809017 -0.587785
    outer loop
      vertex 80 67.5612 34.8084
      vertex 82.5 66.657 33.5639
      vertex 80 66.657 33.5639
    endloop
  endfacet
  facet normal 0 0.929776 -0.368126
    outer loop
      vertex 82.5 65.3496 30.7855
      vertex 80 65.9159 32.2158
      vertex 82.5 65.9159 32.2158
    endloop
  endfacet
  facet normal 0 0.929776 -0.368126
    outer loop
      vertex 80 65.9159 32.2158
      vertex 82.5 65.3496 30.7855
      vertex 80 65.3496 30.7855
    endloop
  endfacet
  facet normal 0 0.876307 -0.481753
    outer loop
      vertex 82.5 65.9159 32.2158
      vertex 80 66.657 33.5639
      vertex 82.5 66.657 33.5639
    endloop
  endfacet
  facet normal 0 0.876307 -0.481753
    outer loop
      vertex 80 66.657 33.5639
      vertex 82.5 65.9159 32.2158
      vertex 80 65.9159 32.2158
    endloop
  endfacet
  facet normal 0 -1 0
    outer loop
      vertex 80 86 44
      vertex 82.5 86 59
      vertex 80 86 59
    endloop
  endfacet
  facet normal 0 -1 -0
    outer loop
      vertex 82.5 86 59
      vertex 80 86 44
      vertex 82.5 86 44
    endloop
  endfacet
  facet normal 0 0 -1
    outer loop
      vertex 80 55 59
      vertex 82.5 86 59
      vertex 82.5 55 59
    endloop
  endfacet
  facet normal -0 0 -1
    outer loop
      vertex 82.5 86 59
      vertex 80 55 59
      vertex 80 86 59
    endloop
  endfacet
  facet normal 0 1 -0
    outer loop
      vertex 82.5 55 44
      vertex 80 55 59
      vertex 82.5 55 59
    endloop
  endfacet
  facet normal 0 1 0
    outer loop
      vertex 80 55 59
      vertex 82.5 55 44
      vertex 80 55 44
    endloop
  endfacet
  facet normal -0 0 1
    outer loop
      vertex 80 86 44
      vertex 82.5 55 44
      vertex 82.5 86 44
    endloop
  endfacet
  facet normal 0 0 1
    outer loop
      vertex 82.5 55 44
      vertex 80 86 44
      vertex 80 55 44
    endloop
  endfacet
  facet normal -1 0 0
    outer loop
      vertex 78 0 3
      vertex 78 100 5
      vertex 78 100 3
    endloop
  endfacet
  facet normal -1 -0 0
    outer loop
      vertex 78 100 5
      vertex 78 0 3
      vertex 78 0 5
    endloop
  endfacet
  facet normal -0 0 1
    outer loop
      vertex 78 100 5
      vertex 80 0 5
      vertex 80 100 5
    endloop
  endfacet
  facet normal 0 0 1
    outer loop
      vertex 80 0 5
      vertex 78 100 5
      vertex 78 0 5
    endloop
  endfacet
endsolid OpenSCAD_Model
